# SOIDL 2.5D model
mtllib accelerometer.mtl
v -394.0000 -295.0000 400.0000
v 400.0000 -295.0000 400.0000
v 400.0000 260.0000 400.0000
v -394.0000 260.0000 400.0000
v -394.0000 -295.0000 0.0000
v 400.0000 -295.0000 0.0000
v 400.0000 260.0000 0.0000
v -394.0000 260.0000 0.0000
v -200.0000 -125.0000 427.0000
v -173.0000 -125.0000 427.0000
v -173.0000 -98.0000 427.0000
v -200.0000 -98.0000 427.0000
v -200.0000 -125.0000 402.0000
v -173.0000 -125.0000 402.0000
v -173.0000 -98.0000 402.0000
v -200.0000 -98.0000 402.0000
v -173.0000 -92.0000 427.0000
v -200.0000 -92.0000 427.0000
v -173.0000 -92.0000 402.0000
v -200.0000 -92.0000 402.0000
v -173.0000 -68.0000 427.0000
v -200.0000 -68.0000 427.0000
v -173.0000 -68.0000 402.0000
v -200.0000 -68.0000 402.0000
v -173.0000 -62.0000 427.0000
v -200.0000 -62.0000 427.0000
v -173.0000 -62.0000 402.0000
v -200.0000 -62.0000 402.0000
v -173.0000 -38.0000 427.0000
v -200.0000 -38.0000 427.0000
v -173.0000 -38.0000 402.0000
v -200.0000 -38.0000 402.0000
v -173.0000 -32.0000 427.0000
v -200.0000 -32.0000 427.0000
v -173.0000 -32.0000 402.0000
v -200.0000 -32.0000 402.0000
v -173.0000 -8.0000 427.0000
v -200.0000 -8.0000 427.0000
v -173.0000 -8.0000 402.0000
v -200.0000 -8.0000 402.0000
v -173.0000 -2.0000 427.0000
v -200.0000 -2.0000 427.0000
v -173.0000 -2.0000 402.0000
v -200.0000 -2.0000 402.0000
v -173.0000 22.0000 427.0000
v -200.0000 22.0000 427.0000
v -173.0000 22.0000 402.0000
v -200.0000 22.0000 402.0000
v -173.0000 28.0000 427.0000
v -200.0000 28.0000 427.0000
v -173.0000 28.0000 402.0000
v -200.0000 28.0000 402.0000
v -173.0000 52.0000 427.0000
v -200.0000 52.0000 427.0000
v -173.0000 52.0000 402.0000
v -200.0000 52.0000 402.0000
v -173.0000 58.0000 427.0000
v -200.0000 58.0000 427.0000
v -173.0000 58.0000 402.0000
v -200.0000 58.0000 402.0000
v -173.0000 82.0000 427.0000
v -200.0000 82.0000 427.0000
v -173.0000 82.0000 402.0000
v -200.0000 82.0000 402.0000
v -173.0000 88.0000 427.0000
v -200.0000 88.0000 427.0000
v -173.0000 88.0000 402.0000
v -200.0000 88.0000 402.0000
v -173.0000 125.0000 427.0000
v -200.0000 125.0000 427.0000
v -173.0000 125.0000 402.0000
v -200.0000 125.0000 402.0000
v -167.0000 -125.0000 427.0000
v -167.0000 -98.0000 427.0000
v -167.0000 -125.0000 402.0000
v -167.0000 -98.0000 402.0000
v -167.0000 -92.0000 427.0000
v -167.0000 -68.0000 427.0000
v -167.0000 -92.0000 402.0000
v -167.0000 -68.0000 402.0000
v -167.0000 -62.0000 427.0000
v -167.0000 -38.0000 427.0000
v -167.0000 -62.0000 402.0000
v -167.0000 -38.0000 402.0000
v -167.0000 -32.0000 427.0000
v -167.0000 -8.0000 427.0000
v -167.0000 -32.0000 402.0000
v -167.0000 -8.0000 402.0000
v -167.0000 -2.0000 427.0000
v -167.0000 22.0000 427.0000
v -167.0000 -2.0000 402.0000
v -167.0000 22.0000 402.0000
v -167.0000 28.0000 427.0000
v -167.0000 52.0000 427.0000
v -167.0000 28.0000 402.0000
v -167.0000 52.0000 402.0000
v -167.0000 58.0000 427.0000
v -167.0000 82.0000 427.0000
v -167.0000 58.0000 402.0000
v -167.0000 82.0000 402.0000
v -167.0000 88.0000 427.0000
v -167.0000 125.0000 427.0000
v -167.0000 88.0000 402.0000
v -167.0000 125.0000 402.0000
v -143.0000 -125.0000 427.0000
v -143.0000 -98.0000 427.0000
v -143.0000 -125.0000 402.0000
v -143.0000 -98.0000 402.0000
v -143.0000 -92.0000 427.0000
v -143.0000 -92.0000 402.0000
v -143.0000 -68.0000 427.0000
v -143.0000 -68.0000 402.0000
v -143.0000 -62.0000 427.0000
v -143.0000 -62.0000 402.0000
v -143.0000 -38.0000 427.0000
v -143.0000 -38.0000 402.0000
v -143.0000 -32.0000 427.0000
v -143.0000 -32.0000 402.0000
v -143.0000 -8.0000 427.0000
v -143.0000 -8.0000 402.0000
v -143.0000 -2.0000 427.0000
v -143.0000 -2.0000 402.0000
v -143.0000 22.0000 427.0000
v -143.0000 22.0000 402.0000
v -143.0000 28.0000 427.0000
v -143.0000 28.0000 402.0000
v -143.0000 52.0000 427.0000
v -143.0000 52.0000 402.0000
v -143.0000 58.0000 427.0000
v -143.0000 58.0000 402.0000
v -143.0000 82.0000 427.0000
v -143.0000 82.0000 402.0000
v -143.0000 88.0000 427.0000
v -143.0000 88.0000 402.0000
v -143.0000 125.0000 427.0000
v -143.0000 125.0000 402.0000
v -137.0000 -125.0000 427.0000
v -137.0000 -98.0000 427.0000
v -137.0000 -125.0000 402.0000
v -137.0000 -98.0000 402.0000
v -137.0000 -92.0000 427.0000
v -137.0000 -68.0000 427.0000
v -137.0000 -92.0000 402.0000
v -137.0000 -68.0000 402.0000
v -137.0000 -62.0000 427.0000
v -137.0000 -38.0000 427.0000
v -137.0000 -62.0000 402.0000
v -137.0000 -38.0000 402.0000
v -137.0000 -32.0000 427.0000
v -137.0000 -8.0000 427.0000
v -137.0000 -32.0000 402.0000
v -137.0000 -8.0000 402.0000
v -137.0000 -2.0000 427.0000
v -137.0000 22.0000 427.0000
v -137.0000 -2.0000 402.0000
v -137.0000 22.0000 402.0000
v -137.0000 28.0000 427.0000
v -137.0000 52.0000 427.0000
v -137.0000 28.0000 402.0000
v -137.0000 52.0000 402.0000
v -137.0000 58.0000 427.0000
v -137.0000 82.0000 427.0000
v -137.0000 58.0000 402.0000
v -137.0000 82.0000 402.0000
v -137.0000 88.0000 427.0000
v -137.0000 125.0000 427.0000
v -137.0000 88.0000 402.0000
v -137.0000 125.0000 402.0000
v -113.0000 -125.0000 427.0000
v -113.0000 -98.0000 427.0000
v -113.0000 -125.0000 402.0000
v -113.0000 -98.0000 402.0000
v -113.0000 -92.0000 427.0000
v -113.0000 -92.0000 402.0000
v -113.0000 -68.0000 427.0000
v -113.0000 -68.0000 402.0000
v -113.0000 -62.0000 427.0000
v -113.0000 -62.0000 402.0000
v -113.0000 -38.0000 427.0000
v -113.0000 -38.0000 402.0000
v -113.0000 -32.0000 427.0000
v -113.0000 -32.0000 402.0000
v -113.0000 -8.0000 427.0000
v -113.0000 -8.0000 402.0000
v -113.0000 -2.0000 427.0000
v -113.0000 -2.0000 402.0000
v -113.0000 22.0000 427.0000
v -113.0000 22.0000 402.0000
v -113.0000 28.0000 427.0000
v -113.0000 28.0000 402.0000
v -113.0000 52.0000 427.0000
v -113.0000 52.0000 402.0000
v -113.0000 58.0000 427.0000
v -113.0000 58.0000 402.0000
v -113.0000 82.0000 427.0000
v -113.0000 82.0000 402.0000
v -113.0000 88.0000 427.0000
v -113.0000 88.0000 402.0000
v -113.0000 125.0000 427.0000
v -113.0000 125.0000 402.0000
v -107.0000 -125.0000 427.0000
v -107.0000 -98.0000 427.0000
v -107.0000 -125.0000 402.0000
v -107.0000 -98.0000 402.0000
v -107.0000 -92.0000 427.0000
v -107.0000 -68.0000 427.0000
v -107.0000 -92.0000 402.0000
v -107.0000 -68.0000 402.0000
v -107.0000 -62.0000 427.0000
v -107.0000 -38.0000 427.0000
v -107.0000 -62.0000 402.0000
v -107.0000 -38.0000 402.0000
v -107.0000 -32.0000 427.0000
v -107.0000 -8.0000 427.0000
v -107.0000 -32.0000 402.0000
v -107.0000 -8.0000 402.0000
v -107.0000 -2.0000 427.0000
v -107.0000 22.0000 427.0000
v -107.0000 -2.0000 402.0000
v -107.0000 22.0000 402.0000
v -107.0000 28.0000 427.0000
v -107.0000 52.0000 427.0000
v -107.0000 28.0000 402.0000
v -107.0000 52.0000 402.0000
v -107.0000 58.0000 427.0000
v -107.0000 82.0000 427.0000
v -107.0000 58.0000 402.0000
v -107.0000 82.0000 402.0000
v -107.0000 88.0000 427.0000
v -107.0000 125.0000 427.0000
v -107.0000 88.0000 402.0000
v -107.0000 125.0000 402.0000
v -83.0000 -125.0000 427.0000
v -83.0000 -98.0000 427.0000
v -83.0000 -125.0000 402.0000
v -83.0000 -98.0000 402.0000
v -83.0000 -92.0000 427.0000
v -83.0000 -92.0000 402.0000
v -83.0000 -68.0000 427.0000
v -83.0000 -68.0000 402.0000
v -83.0000 -62.0000 427.0000
v -83.0000 -62.0000 402.0000
v -83.0000 -38.0000 427.0000
v -83.0000 -38.0000 402.0000
v -83.0000 -32.0000 427.0000
v -83.0000 -32.0000 402.0000
v -83.0000 -8.0000 427.0000
v -83.0000 -8.0000 402.0000
v -83.0000 -2.0000 427.0000
v -83.0000 -2.0000 402.0000
v -83.0000 22.0000 427.0000
v -83.0000 22.0000 402.0000
v -83.0000 28.0000 427.0000
v -83.0000 28.0000 402.0000
v -83.0000 52.0000 427.0000
v -83.0000 52.0000 402.0000
v -83.0000 58.0000 427.0000
v -83.0000 58.0000 402.0000
v -83.0000 82.0000 427.0000
v -83.0000 82.0000 402.0000
v -83.0000 88.0000 427.0000
v -83.0000 88.0000 402.0000
v -83.0000 125.0000 427.0000
v -83.0000 125.0000 402.0000
v -77.0000 -125.0000 427.0000
v -77.0000 -98.0000 427.0000
v -77.0000 -125.0000 402.0000
v -77.0000 -98.0000 402.0000
v -77.0000 -92.0000 427.0000
v -77.0000 -68.0000 427.0000
v -77.0000 -92.0000 402.0000
v -77.0000 -68.0000 402.0000
v -77.0000 -62.0000 427.0000
v -77.0000 -38.0000 427.0000
v -77.0000 -62.0000 402.0000
v -77.0000 -38.0000 402.0000
v -77.0000 -32.0000 427.0000
v -77.0000 -8.0000 427.0000
v -77.0000 -32.0000 402.0000
v -77.0000 -8.0000 402.0000
v -77.0000 -2.0000 427.0000
v -77.0000 22.0000 427.0000
v -77.0000 -2.0000 402.0000
v -77.0000 22.0000 402.0000
v -77.0000 28.0000 427.0000
v -77.0000 52.0000 427.0000
v -77.0000 28.0000 402.0000
v -77.0000 52.0000 402.0000
v -77.0000 58.0000 427.0000
v -77.0000 82.0000 427.0000
v -77.0000 58.0000 402.0000
v -77.0000 82.0000 402.0000
v -77.0000 88.0000 427.0000
v -77.0000 125.0000 427.0000
v -77.0000 88.0000 402.0000
v -77.0000 125.0000 402.0000
v -53.0000 -125.0000 427.0000
v -53.0000 -98.0000 427.0000
v -53.0000 -125.0000 402.0000
v -53.0000 -98.0000 402.0000
v -53.0000 -92.0000 427.0000
v -53.0000 -92.0000 402.0000
v -53.0000 -68.0000 427.0000
v -53.0000 -68.0000 402.0000
v -53.0000 -62.0000 427.0000
v -53.0000 -62.0000 402.0000
v -53.0000 -38.0000 427.0000
v -53.0000 -38.0000 402.0000
v -53.0000 -32.0000 427.0000
v -53.0000 -32.0000 402.0000
v -53.0000 -8.0000 427.0000
v -53.0000 -8.0000 402.0000
v -53.0000 -2.0000 427.0000
v -53.0000 -2.0000 402.0000
v -53.0000 22.0000 427.0000
v -53.0000 22.0000 402.0000
v -53.0000 28.0000 427.0000
v -53.0000 28.0000 402.0000
v -53.0000 52.0000 427.0000
v -53.0000 52.0000 402.0000
v -53.0000 58.0000 427.0000
v -53.0000 58.0000 402.0000
v -53.0000 82.0000 427.0000
v -53.0000 82.0000 402.0000
v -53.0000 88.0000 427.0000
v -53.0000 88.0000 402.0000
v -53.0000 125.0000 427.0000
v -53.0000 125.0000 402.0000
v -47.0000 -125.0000 427.0000
v -47.0000 -98.0000 427.0000
v -47.0000 -125.0000 402.0000
v -47.0000 -98.0000 402.0000
v -47.0000 -92.0000 427.0000
v -47.0000 -68.0000 427.0000
v -47.0000 -92.0000 402.0000
v -47.0000 -68.0000 402.0000
v -47.0000 -62.0000 427.0000
v -47.0000 -38.0000 427.0000
v -47.0000 -62.0000 402.0000
v -47.0000 -38.0000 402.0000
v -47.0000 -32.0000 427.0000
v -47.0000 -8.0000 427.0000
v -47.0000 -32.0000 402.0000
v -47.0000 -8.0000 402.0000
v -47.0000 -2.0000 427.0000
v -47.0000 22.0000 427.0000
v -47.0000 -2.0000 402.0000
v -47.0000 22.0000 402.0000
v -47.0000 28.0000 427.0000
v -47.0000 52.0000 427.0000
v -47.0000 28.0000 402.0000
v -47.0000 52.0000 402.0000
v -47.0000 58.0000 427.0000
v -47.0000 82.0000 427.0000
v -47.0000 58.0000 402.0000
v -47.0000 82.0000 402.0000
v -47.0000 88.0000 427.0000
v -47.0000 125.0000 427.0000
v -47.0000 88.0000 402.0000
v -47.0000 125.0000 402.0000
v -23.0000 -125.0000 427.0000
v -23.0000 -98.0000 427.0000
v -23.0000 -125.0000 402.0000
v -23.0000 -98.0000 402.0000
v -23.0000 -92.0000 427.0000
v -23.0000 -92.0000 402.0000
v -23.0000 -68.0000 427.0000
v -23.0000 -68.0000 402.0000
v -23.0000 -62.0000 427.0000
v -23.0000 -62.0000 402.0000
v -23.0000 -38.0000 427.0000
v -23.0000 -38.0000 402.0000
v -23.0000 -32.0000 427.0000
v -23.0000 -32.0000 402.0000
v -23.0000 -8.0000 427.0000
v -23.0000 -8.0000 402.0000
v -23.0000 -2.0000 427.0000
v -23.0000 -2.0000 402.0000
v -23.0000 22.0000 427.0000
v -23.0000 22.0000 402.0000
v -23.0000 28.0000 427.0000
v -23.0000 28.0000 402.0000
v -23.0000 52.0000 427.0000
v -23.0000 52.0000 402.0000
v -23.0000 58.0000 427.0000
v -23.0000 58.0000 402.0000
v -23.0000 82.0000 427.0000
v -23.0000 82.0000 402.0000
v -23.0000 88.0000 427.0000
v -23.0000 88.0000 402.0000
v -23.0000 125.0000 427.0000
v -23.0000 125.0000 402.0000
v -17.0000 -125.0000 427.0000
v -17.0000 -98.0000 427.0000
v -17.0000 -125.0000 402.0000
v -17.0000 -98.0000 402.0000
v -17.0000 -92.0000 427.0000
v -17.0000 -68.0000 427.0000
v -17.0000 -92.0000 402.0000
v -17.0000 -68.0000 402.0000
v -17.0000 -62.0000 427.0000
v -17.0000 -38.0000 427.0000
v -17.0000 -62.0000 402.0000
v -17.0000 -38.0000 402.0000
v -17.0000 -32.0000 427.0000
v -17.0000 -8.0000 427.0000
v -17.0000 -32.0000 402.0000
v -17.0000 -8.0000 402.0000
v -17.0000 -2.0000 427.0000
v -17.0000 22.0000 427.0000
v -17.0000 -2.0000 402.0000
v -17.0000 22.0000 402.0000
v -17.0000 28.0000 427.0000
v -17.0000 52.0000 427.0000
v -17.0000 28.0000 402.0000
v -17.0000 52.0000 402.0000
v -17.0000 58.0000 427.0000
v -17.0000 82.0000 427.0000
v -17.0000 58.0000 402.0000
v -17.0000 82.0000 402.0000
v -17.0000 88.0000 427.0000
v -17.0000 125.0000 427.0000
v -17.0000 88.0000 402.0000
v -17.0000 125.0000 402.0000
v 7.0000 -125.0000 427.0000
v 7.0000 -98.0000 427.0000
v 7.0000 -125.0000 402.0000
v 7.0000 -98.0000 402.0000
v 7.0000 -92.0000 427.0000
v 7.0000 -92.0000 402.0000
v 7.0000 -68.0000 427.0000
v 7.0000 -68.0000 402.0000
v 7.0000 -62.0000 427.0000
v 7.0000 -62.0000 402.0000
v 7.0000 -38.0000 427.0000
v 7.0000 -38.0000 402.0000
v 7.0000 -32.0000 427.0000
v 7.0000 -32.0000 402.0000
v 7.0000 -8.0000 427.0000
v 7.0000 -8.0000 402.0000
v 7.0000 -2.0000 427.0000
v 7.0000 -2.0000 402.0000
v 7.0000 22.0000 427.0000
v 7.0000 22.0000 402.0000
v 7.0000 28.0000 427.0000
v 7.0000 28.0000 402.0000
v 7.0000 52.0000 427.0000
v 7.0000 52.0000 402.0000
v 7.0000 58.0000 427.0000
v 7.0000 58.0000 402.0000
v 7.0000 82.0000 427.0000
v 7.0000 82.0000 402.0000
v 7.0000 88.0000 427.0000
v 7.0000 88.0000 402.0000
v 7.0000 125.0000 427.0000
v 7.0000 125.0000 402.0000
v 13.0000 -125.0000 427.0000
v 13.0000 -98.0000 427.0000
v 13.0000 -125.0000 402.0000
v 13.0000 -98.0000 402.0000
v 13.0000 -92.0000 427.0000
v 13.0000 -68.0000 427.0000
v 13.0000 -92.0000 402.0000
v 13.0000 -68.0000 402.0000
v 13.0000 -62.0000 427.0000
v 13.0000 -38.0000 427.0000
v 13.0000 -62.0000 402.0000
v 13.0000 -38.0000 402.0000
v 13.0000 -32.0000 427.0000
v 13.0000 -8.0000 427.0000
v 13.0000 -32.0000 402.0000
v 13.0000 -8.0000 402.0000
v 13.0000 -2.0000 427.0000
v 13.0000 22.0000 427.0000
v 13.0000 -2.0000 402.0000
v 13.0000 22.0000 402.0000
v 13.0000 28.0000 427.0000
v 13.0000 52.0000 427.0000
v 13.0000 28.0000 402.0000
v 13.0000 52.0000 402.0000
v 13.0000 58.0000 427.0000
v 13.0000 82.0000 427.0000
v 13.0000 58.0000 402.0000
v 13.0000 82.0000 402.0000
v 13.0000 88.0000 427.0000
v 13.0000 125.0000 427.0000
v 13.0000 88.0000 402.0000
v 13.0000 125.0000 402.0000
v 37.0000 -125.0000 427.0000
v 37.0000 -98.0000 427.0000
v 37.0000 -125.0000 402.0000
v 37.0000 -98.0000 402.0000
v 37.0000 -92.0000 427.0000
v 37.0000 -92.0000 402.0000
v 37.0000 -68.0000 427.0000
v 37.0000 -68.0000 402.0000
v 37.0000 -62.0000 427.0000
v 37.0000 -62.0000 402.0000
v 37.0000 -38.0000 427.0000
v 37.0000 -38.0000 402.0000
v 37.0000 -32.0000 427.0000
v 37.0000 -32.0000 402.0000
v 37.0000 -8.0000 427.0000
v 37.0000 -8.0000 402.0000
v 37.0000 -2.0000 427.0000
v 37.0000 -2.0000 402.0000
v 37.0000 22.0000 427.0000
v 37.0000 22.0000 402.0000
v 37.0000 28.0000 427.0000
v 37.0000 28.0000 402.0000
v 37.0000 52.0000 427.0000
v 37.0000 52.0000 402.0000
v 37.0000 58.0000 427.0000
v 37.0000 58.0000 402.0000
v 37.0000 82.0000 427.0000
v 37.0000 82.0000 402.0000
v 37.0000 88.0000 427.0000
v 37.0000 88.0000 402.0000
v 37.0000 125.0000 427.0000
v 37.0000 125.0000 402.0000
v 43.0000 -125.0000 427.0000
v 43.0000 -98.0000 427.0000
v 43.0000 -125.0000 402.0000
v 43.0000 -98.0000 402.0000
v 43.0000 -92.0000 427.0000
v 43.0000 -68.0000 427.0000
v 43.0000 -92.0000 402.0000
v 43.0000 -68.0000 402.0000
v 43.0000 -62.0000 427.0000
v 43.0000 -38.0000 427.0000
v 43.0000 -62.0000 402.0000
v 43.0000 -38.0000 402.0000
v 43.0000 -32.0000 427.0000
v 43.0000 -8.0000 427.0000
v 43.0000 -32.0000 402.0000
v 43.0000 -8.0000 402.0000
v 43.0000 -2.0000 427.0000
v 43.0000 22.0000 427.0000
v 43.0000 -2.0000 402.0000
v 43.0000 22.0000 402.0000
v 43.0000 28.0000 427.0000
v 43.0000 52.0000 427.0000
v 43.0000 28.0000 402.0000
v 43.0000 52.0000 402.0000
v 43.0000 58.0000 427.0000
v 43.0000 82.0000 427.0000
v 43.0000 58.0000 402.0000
v 43.0000 82.0000 402.0000
v 43.0000 88.0000 427.0000
v 43.0000 125.0000 427.0000
v 43.0000 88.0000 402.0000
v 43.0000 125.0000 402.0000
v 67.0000 -125.0000 427.0000
v 67.0000 -98.0000 427.0000
v 67.0000 -125.0000 402.0000
v 67.0000 -98.0000 402.0000
v 67.0000 -92.0000 427.0000
v 67.0000 -92.0000 402.0000
v 67.0000 -68.0000 427.0000
v 67.0000 -68.0000 402.0000
v 67.0000 -62.0000 427.0000
v 67.0000 -62.0000 402.0000
v 67.0000 -38.0000 427.0000
v 67.0000 -38.0000 402.0000
v 67.0000 -32.0000 427.0000
v 67.0000 -32.0000 402.0000
v 67.0000 -8.0000 427.0000
v 67.0000 -8.0000 402.0000
v 67.0000 -2.0000 427.0000
v 67.0000 -2.0000 402.0000
v 67.0000 22.0000 427.0000
v 67.0000 22.0000 402.0000
v 67.0000 28.0000 427.0000
v 67.0000 28.0000 402.0000
v 67.0000 52.0000 427.0000
v 67.0000 52.0000 402.0000
v 67.0000 58.0000 427.0000
v 67.0000 58.0000 402.0000
v 67.0000 82.0000 427.0000
v 67.0000 82.0000 402.0000
v 67.0000 88.0000 427.0000
v 67.0000 88.0000 402.0000
v 67.0000 125.0000 427.0000
v 67.0000 125.0000 402.0000
v 73.0000 -125.0000 427.0000
v 73.0000 -98.0000 427.0000
v 73.0000 -125.0000 402.0000
v 73.0000 -98.0000 402.0000
v 73.0000 -92.0000 427.0000
v 73.0000 -68.0000 427.0000
v 73.0000 -92.0000 402.0000
v 73.0000 -68.0000 402.0000
v 73.0000 -62.0000 427.0000
v 73.0000 -38.0000 427.0000
v 73.0000 -62.0000 402.0000
v 73.0000 -38.0000 402.0000
v 73.0000 -32.0000 427.0000
v 73.0000 -8.0000 427.0000
v 73.0000 -32.0000 402.0000
v 73.0000 -8.0000 402.0000
v 73.0000 -2.0000 427.0000
v 73.0000 22.0000 427.0000
v 73.0000 -2.0000 402.0000
v 73.0000 22.0000 402.0000
v 73.0000 28.0000 427.0000
v 73.0000 52.0000 427.0000
v 73.0000 28.0000 402.0000
v 73.0000 52.0000 402.0000
v 73.0000 58.0000 427.0000
v 73.0000 82.0000 427.0000
v 73.0000 58.0000 402.0000
v 73.0000 82.0000 402.0000
v 73.0000 88.0000 427.0000
v 73.0000 125.0000 427.0000
v 73.0000 88.0000 402.0000
v 73.0000 125.0000 402.0000
v 97.0000 -125.0000 427.0000
v 97.0000 -98.0000 427.0000
v 97.0000 -125.0000 402.0000
v 97.0000 -98.0000 402.0000
v 97.0000 -92.0000 427.0000
v 97.0000 -92.0000 402.0000
v 97.0000 -68.0000 427.0000
v 97.0000 -68.0000 402.0000
v 97.0000 -62.0000 427.0000
v 97.0000 -62.0000 402.0000
v 97.0000 -38.0000 427.0000
v 97.0000 -38.0000 402.0000
v 97.0000 -32.0000 427.0000
v 97.0000 -32.0000 402.0000
v 97.0000 -8.0000 427.0000
v 97.0000 -8.0000 402.0000
v 97.0000 -2.0000 427.0000
v 97.0000 -2.0000 402.0000
v 97.0000 22.0000 427.0000
v 97.0000 22.0000 402.0000
v 97.0000 28.0000 427.0000
v 97.0000 28.0000 402.0000
v 97.0000 52.0000 427.0000
v 97.0000 52.0000 402.0000
v 97.0000 58.0000 427.0000
v 97.0000 58.0000 402.0000
v 97.0000 82.0000 427.0000
v 97.0000 82.0000 402.0000
v 97.0000 88.0000 427.0000
v 97.0000 88.0000 402.0000
v 97.0000 125.0000 427.0000
v 97.0000 125.0000 402.0000
v 103.0000 -125.0000 427.0000
v 103.0000 -98.0000 427.0000
v 103.0000 -125.0000 402.0000
v 103.0000 -98.0000 402.0000
v 103.0000 -92.0000 427.0000
v 103.0000 -68.0000 427.0000
v 103.0000 -92.0000 402.0000
v 103.0000 -68.0000 402.0000
v 103.0000 -62.0000 427.0000
v 103.0000 -38.0000 427.0000
v 103.0000 -62.0000 402.0000
v 103.0000 -38.0000 402.0000
v 103.0000 -32.0000 427.0000
v 103.0000 -8.0000 427.0000
v 103.0000 -32.0000 402.0000
v 103.0000 -8.0000 402.0000
v 103.0000 -2.0000 427.0000
v 103.0000 22.0000 427.0000
v 103.0000 -2.0000 402.0000
v 103.0000 22.0000 402.0000
v 103.0000 28.0000 427.0000
v 103.0000 52.0000 427.0000
v 103.0000 28.0000 402.0000
v 103.0000 52.0000 402.0000
v 103.0000 58.0000 427.0000
v 103.0000 82.0000 427.0000
v 103.0000 58.0000 402.0000
v 103.0000 82.0000 402.0000
v 103.0000 88.0000 427.0000
v 103.0000 125.0000 427.0000
v 103.0000 88.0000 402.0000
v 103.0000 125.0000 402.0000
v 127.0000 -125.0000 427.0000
v 127.0000 -98.0000 427.0000
v 127.0000 -125.0000 402.0000
v 127.0000 -98.0000 402.0000
v 127.0000 -92.0000 427.0000
v 127.0000 -92.0000 402.0000
v 127.0000 -68.0000 427.0000
v 127.0000 -68.0000 402.0000
v 127.0000 -62.0000 427.0000
v 127.0000 -62.0000 402.0000
v 127.0000 -38.0000 427.0000
v 127.0000 -38.0000 402.0000
v 127.0000 -32.0000 427.0000
v 127.0000 -32.0000 402.0000
v 127.0000 -8.0000 427.0000
v 127.0000 -8.0000 402.0000
v 127.0000 -2.0000 427.0000
v 127.0000 -2.0000 402.0000
v 127.0000 22.0000 427.0000
v 127.0000 22.0000 402.0000
v 127.0000 28.0000 427.0000
v 127.0000 28.0000 402.0000
v 127.0000 52.0000 427.0000
v 127.0000 52.0000 402.0000
v 127.0000 58.0000 427.0000
v 127.0000 58.0000 402.0000
v 127.0000 82.0000 427.0000
v 127.0000 82.0000 402.0000
v 127.0000 88.0000 427.0000
v 127.0000 88.0000 402.0000
v 127.0000 125.0000 427.0000
v 127.0000 125.0000 402.0000
v 133.0000 -125.0000 427.0000
v 133.0000 -98.0000 427.0000
v 133.0000 -125.0000 402.0000
v 133.0000 -98.0000 402.0000
v 133.0000 -92.0000 427.0000
v 133.0000 -68.0000 427.0000
v 133.0000 -92.0000 402.0000
v 133.0000 -68.0000 402.0000
v 133.0000 -62.0000 427.0000
v 133.0000 -38.0000 427.0000
v 133.0000 -62.0000 402.0000
v 133.0000 -38.0000 402.0000
v 133.0000 -32.0000 427.0000
v 133.0000 -8.0000 427.0000
v 133.0000 -32.0000 402.0000
v 133.0000 -8.0000 402.0000
v 133.0000 -2.0000 427.0000
v 133.0000 22.0000 427.0000
v 133.0000 -2.0000 402.0000
v 133.0000 22.0000 402.0000
v 133.0000 28.0000 427.0000
v 133.0000 52.0000 427.0000
v 133.0000 28.0000 402.0000
v 133.0000 52.0000 402.0000
v 133.0000 58.0000 427.0000
v 133.0000 82.0000 427.0000
v 133.0000 58.0000 402.0000
v 133.0000 82.0000 402.0000
v 133.0000 88.0000 427.0000
v 133.0000 125.0000 427.0000
v 133.0000 88.0000 402.0000
v 133.0000 125.0000 402.0000
v 157.0000 -125.0000 427.0000
v 157.0000 -98.0000 427.0000
v 157.0000 -125.0000 402.0000
v 157.0000 -98.0000 402.0000
v 157.0000 -92.0000 427.0000
v 157.0000 -92.0000 402.0000
v 157.0000 -68.0000 427.0000
v 157.0000 -68.0000 402.0000
v 157.0000 -62.0000 427.0000
v 157.0000 -62.0000 402.0000
v 157.0000 -38.0000 427.0000
v 157.0000 -38.0000 402.0000
v 157.0000 -32.0000 427.0000
v 157.0000 -32.0000 402.0000
v 157.0000 -8.0000 427.0000
v 157.0000 -8.0000 402.0000
v 157.0000 -2.0000 427.0000
v 157.0000 -2.0000 402.0000
v 157.0000 22.0000 427.0000
v 157.0000 22.0000 402.0000
v 157.0000 28.0000 427.0000
v 157.0000 28.0000 402.0000
v 157.0000 52.0000 427.0000
v 157.0000 52.0000 402.0000
v 157.0000 58.0000 427.0000
v 157.0000 58.0000 402.0000
v 157.0000 82.0000 427.0000
v 157.0000 82.0000 402.0000
v 157.0000 88.0000 427.0000
v 157.0000 88.0000 402.0000
v 157.0000 125.0000 427.0000
v 157.0000 125.0000 402.0000
v 163.0000 -125.0000 427.0000
v 163.0000 -98.0000 427.0000
v 163.0000 -125.0000 402.0000
v 163.0000 -98.0000 402.0000
v 163.0000 -92.0000 427.0000
v 163.0000 -68.0000 427.0000
v 163.0000 -92.0000 402.0000
v 163.0000 -68.0000 402.0000
v 163.0000 -62.0000 427.0000
v 163.0000 -38.0000 427.0000
v 163.0000 -62.0000 402.0000
v 163.0000 -38.0000 402.0000
v 163.0000 -32.0000 427.0000
v 163.0000 -8.0000 427.0000
v 163.0000 -32.0000 402.0000
v 163.0000 -8.0000 402.0000
v 163.0000 -2.0000 427.0000
v 163.0000 22.0000 427.0000
v 163.0000 -2.0000 402.0000
v 163.0000 22.0000 402.0000
v 163.0000 28.0000 427.0000
v 163.0000 52.0000 427.0000
v 163.0000 28.0000 402.0000
v 163.0000 52.0000 402.0000
v 163.0000 58.0000 427.0000
v 163.0000 82.0000 427.0000
v 163.0000 58.0000 402.0000
v 163.0000 82.0000 402.0000
v 163.0000 88.0000 427.0000
v 163.0000 125.0000 427.0000
v 163.0000 88.0000 402.0000
v 163.0000 125.0000 402.0000
v 200.0000 -125.0000 427.0000
v 200.0000 -98.0000 427.0000
v 200.0000 -125.0000 402.0000
v 200.0000 -98.0000 402.0000
v 200.0000 -92.0000 427.0000
v 200.0000 -92.0000 402.0000
v 200.0000 -68.0000 427.0000
v 200.0000 -68.0000 402.0000
v 200.0000 -62.0000 427.0000
v 200.0000 -62.0000 402.0000
v 200.0000 -38.0000 427.0000
v 200.0000 -38.0000 402.0000
v 200.0000 -32.0000 427.0000
v 200.0000 -32.0000 402.0000
v 200.0000 -8.0000 427.0000
v 200.0000 -8.0000 402.0000
v 200.0000 -2.0000 427.0000
v 200.0000 -2.0000 402.0000
v 200.0000 22.0000 427.0000
v 200.0000 22.0000 402.0000
v 200.0000 28.0000 427.0000
v 200.0000 28.0000 402.0000
v 200.0000 52.0000 427.0000
v 200.0000 52.0000 402.0000
v 200.0000 58.0000 427.0000
v 200.0000 58.0000 402.0000
v 200.0000 82.0000 427.0000
v 200.0000 82.0000 402.0000
v 200.0000 88.0000 427.0000
v 200.0000 88.0000 402.0000
v 200.0000 125.0000 427.0000
v 200.0000 125.0000 402.0000
v -350.0000 -127.5000 427.0000
v -50.0000 -127.5000 427.0000
v -50.0000 -122.5000 427.0000
v -350.0000 -122.5000 427.0000
v -350.0000 -127.5000 402.0000
v -50.0000 -127.5000 402.0000
v -50.0000 -122.5000 402.0000
v -350.0000 -122.5000 402.0000
v -374.0000 -137.0000 427.0000
v -350.0000 -137.0000 427.0000
v -350.0000 -113.0000 427.0000
v -374.0000 -113.0000 427.0000
v -374.0000 -137.0000 402.0000
v -350.0000 -137.0000 402.0000
v -350.0000 -113.0000 402.0000
v -374.0000 -113.0000 402.0000
v -374.0000 -137.0000 402.0000
v -350.0000 -137.0000 402.0000
v -350.0000 -113.0000 402.0000
v -374.0000 -113.0000 402.0000
v -374.0000 -137.0000 400.0000
v -350.0000 -137.0000 400.0000
v -350.0000 -113.0000 400.0000
v -374.0000 -113.0000 400.0000
v 50.0000 -127.5000 427.0000
v 350.0000 -127.5000 427.0000
v 350.0000 -122.5000 427.0000
v 50.0000 -122.5000 427.0000
v 50.0000 -127.5000 402.0000
v 350.0000 -127.5000 402.0000
v 350.0000 -122.5000 402.0000
v 50.0000 -122.5000 402.0000
v 26.0000 -137.0000 427.0000
v 50.0000 -137.0000 427.0000
v 50.0000 -113.0000 427.0000
v 26.0000 -113.0000 427.0000
v 26.0000 -137.0000 402.0000
v 50.0000 -137.0000 402.0000
v 50.0000 -113.0000 402.0000
v 26.0000 -113.0000 402.0000
v 26.0000 -137.0000 402.0000
v 50.0000 -137.0000 402.0000
v 50.0000 -113.0000 402.0000
v 26.0000 -113.0000 402.0000
v 26.0000 -137.0000 400.0000
v 50.0000 -137.0000 400.0000
v 50.0000 -113.0000 400.0000
v 26.0000 -113.0000 400.0000
v -33.0000 -275.0000 427.0000
v -25.0000 -275.0000 427.0000
v -25.0000 25.0000 427.0000
v -33.0000 25.0000 427.0000
v -33.0000 -275.0000 402.0000
v -25.0000 -275.0000 402.0000
v -25.0000 25.0000 402.0000
v -33.0000 25.0000 402.0000
v 25.0000 -275.0000 427.0000
v 33.0000 -275.0000 427.0000
v 33.0000 25.0000 427.0000
v 25.0000 25.0000 427.0000
v 25.0000 -275.0000 402.0000
v 33.0000 -275.0000 402.0000
v 33.0000 25.0000 402.0000
v 25.0000 25.0000 402.0000
v 25.0000 -275.0000 402.0000
v 33.0000 -275.0000 402.0000
v 33.0000 25.0000 402.0000
v 25.0000 25.0000 402.0000
v 25.0000 -275.0000 400.0000
v 33.0000 -275.0000 400.0000
v 33.0000 25.0000 400.0000
v 25.0000 25.0000 400.0000
v -25.0000 -274.0000 427.0000
v 25.0000 -274.0000 427.0000
v 25.0000 -271.0000 427.0000
v -25.0000 -271.0000 427.0000
v -25.0000 -274.0000 402.0000
v 25.0000 -274.0000 402.0000
v 25.0000 -271.0000 402.0000
v -25.0000 -271.0000 402.0000
v -25.0000 -269.0000 427.0000
v 25.0000 -269.0000 427.0000
v 25.0000 -266.0000 427.0000
v -25.0000 -266.0000 427.0000
v -25.0000 -269.0000 402.0000
v 25.0000 -269.0000 402.0000
v 25.0000 -266.0000 402.0000
v -25.0000 -266.0000 402.0000
v -25.0000 -269.0000 402.0000
v 25.0000 -269.0000 402.0000
v 25.0000 -266.0000 402.0000
v -25.0000 -266.0000 402.0000
v -25.0000 -269.0000 400.0000
v 25.0000 -269.0000 400.0000
v 25.0000 -266.0000 400.0000
v -25.0000 -266.0000 400.0000
v -25.0000 -264.0000 427.0000
v 25.0000 -264.0000 427.0000
v 25.0000 -261.0000 427.0000
v -25.0000 -261.0000 427.0000
v -25.0000 -264.0000 402.0000
v 25.0000 -264.0000 402.0000
v 25.0000 -261.0000 402.0000
v -25.0000 -261.0000 402.0000
v -25.0000 -259.0000 427.0000
v 25.0000 -259.0000 427.0000
v 25.0000 -256.0000 427.0000
v -25.0000 -256.0000 427.0000
v -25.0000 -259.0000 402.0000
v 25.0000 -259.0000 402.0000
v 25.0000 -256.0000 402.0000
v -25.0000 -256.0000 402.0000
v -25.0000 -259.0000 402.0000
v 25.0000 -259.0000 402.0000
v 25.0000 -256.0000 402.0000
v -25.0000 -256.0000 402.0000
v -25.0000 -259.0000 400.0000
v 25.0000 -259.0000 400.0000
v 25.0000 -256.0000 400.0000
v -25.0000 -256.0000 400.0000
v -25.0000 -254.0000 427.0000
v 25.0000 -254.0000 427.0000
v 25.0000 -251.0000 427.0000
v -25.0000 -251.0000 427.0000
v -25.0000 -254.0000 402.0000
v 25.0000 -254.0000 402.0000
v 25.0000 -251.0000 402.0000
v -25.0000 -251.0000 402.0000
v -25.0000 -249.0000 427.0000
v 25.0000 -249.0000 427.0000
v 25.0000 -246.0000 427.0000
v -25.0000 -246.0000 427.0000
v -25.0000 -249.0000 402.0000
v 25.0000 -249.0000 402.0000
v 25.0000 -246.0000 402.0000
v -25.0000 -246.0000 402.0000
v -25.0000 -249.0000 402.0000
v 25.0000 -249.0000 402.0000
v 25.0000 -246.0000 402.0000
v -25.0000 -246.0000 402.0000
v -25.0000 -249.0000 400.0000
v 25.0000 -249.0000 400.0000
v 25.0000 -246.0000 400.0000
v -25.0000 -246.0000 400.0000
v -25.0000 -244.0000 427.0000
v 25.0000 -244.0000 427.0000
v 25.0000 -241.0000 427.0000
v -25.0000 -241.0000 427.0000
v -25.0000 -244.0000 402.0000
v 25.0000 -244.0000 402.0000
v 25.0000 -241.0000 402.0000
v -25.0000 -241.0000 402.0000
v -25.0000 -239.0000 427.0000
v 25.0000 -239.0000 427.0000
v 25.0000 -236.0000 427.0000
v -25.0000 -236.0000 427.0000
v -25.0000 -239.0000 402.0000
v 25.0000 -239.0000 402.0000
v 25.0000 -236.0000 402.0000
v -25.0000 -236.0000 402.0000
v -25.0000 -239.0000 402.0000
v 25.0000 -239.0000 402.0000
v 25.0000 -236.0000 402.0000
v -25.0000 -236.0000 402.0000
v -25.0000 -239.0000 400.0000
v 25.0000 -239.0000 400.0000
v 25.0000 -236.0000 400.0000
v -25.0000 -236.0000 400.0000
v -25.0000 -234.0000 427.0000
v 25.0000 -234.0000 427.0000
v 25.0000 -231.0000 427.0000
v -25.0000 -231.0000 427.0000
v -25.0000 -234.0000 402.0000
v 25.0000 -234.0000 402.0000
v 25.0000 -231.0000 402.0000
v -25.0000 -231.0000 402.0000
v -25.0000 -229.0000 427.0000
v 25.0000 -229.0000 427.0000
v 25.0000 -226.0000 427.0000
v -25.0000 -226.0000 427.0000
v -25.0000 -229.0000 402.0000
v 25.0000 -229.0000 402.0000
v 25.0000 -226.0000 402.0000
v -25.0000 -226.0000 402.0000
v -25.0000 -229.0000 402.0000
v 25.0000 -229.0000 402.0000
v 25.0000 -226.0000 402.0000
v -25.0000 -226.0000 402.0000
v -25.0000 -229.0000 400.0000
v 25.0000 -229.0000 400.0000
v 25.0000 -226.0000 400.0000
v -25.0000 -226.0000 400.0000
v -25.0000 -224.0000 427.0000
v 25.0000 -224.0000 427.0000
v 25.0000 -221.0000 427.0000
v -25.0000 -221.0000 427.0000
v -25.0000 -224.0000 402.0000
v 25.0000 -224.0000 402.0000
v 25.0000 -221.0000 402.0000
v -25.0000 -221.0000 402.0000
v -25.0000 -219.0000 427.0000
v 25.0000 -219.0000 427.0000
v 25.0000 -216.0000 427.0000
v -25.0000 -216.0000 427.0000
v -25.0000 -219.0000 402.0000
v 25.0000 -219.0000 402.0000
v 25.0000 -216.0000 402.0000
v -25.0000 -216.0000 402.0000
v -25.0000 -219.0000 402.0000
v 25.0000 -219.0000 402.0000
v 25.0000 -216.0000 402.0000
v -25.0000 -216.0000 402.0000
v -25.0000 -219.0000 400.0000
v 25.0000 -219.0000 400.0000
v 25.0000 -216.0000 400.0000
v -25.0000 -216.0000 400.0000
v -25.0000 -214.0000 427.0000
v 25.0000 -214.0000 427.0000
v 25.0000 -211.0000 427.0000
v -25.0000 -211.0000 427.0000
v -25.0000 -214.0000 402.0000
v 25.0000 -214.0000 402.0000
v 25.0000 -211.0000 402.0000
v -25.0000 -211.0000 402.0000
v -25.0000 -209.0000 427.0000
v 25.0000 -209.0000 427.0000
v 25.0000 -206.0000 427.0000
v -25.0000 -206.0000 427.0000
v -25.0000 -209.0000 402.0000
v 25.0000 -209.0000 402.0000
v 25.0000 -206.0000 402.0000
v -25.0000 -206.0000 402.0000
v -25.0000 -209.0000 402.0000
v 25.0000 -209.0000 402.0000
v 25.0000 -206.0000 402.0000
v -25.0000 -206.0000 402.0000
v -25.0000 -209.0000 400.0000
v 25.0000 -209.0000 400.0000
v 25.0000 -206.0000 400.0000
v -25.0000 -206.0000 400.0000
v -25.0000 -204.0000 427.0000
v 25.0000 -204.0000 427.0000
v 25.0000 -201.0000 427.0000
v -25.0000 -201.0000 427.0000
v -25.0000 -204.0000 402.0000
v 25.0000 -204.0000 402.0000
v 25.0000 -201.0000 402.0000
v -25.0000 -201.0000 402.0000
v -25.0000 -199.0000 427.0000
v 25.0000 -199.0000 427.0000
v 25.0000 -196.0000 427.0000
v -25.0000 -196.0000 427.0000
v -25.0000 -199.0000 402.0000
v 25.0000 -199.0000 402.0000
v 25.0000 -196.0000 402.0000
v -25.0000 -196.0000 402.0000
v -25.0000 -199.0000 402.0000
v 25.0000 -199.0000 402.0000
v 25.0000 -196.0000 402.0000
v -25.0000 -196.0000 402.0000
v -25.0000 -199.0000 400.0000
v 25.0000 -199.0000 400.0000
v 25.0000 -196.0000 400.0000
v -25.0000 -196.0000 400.0000
v -25.0000 -194.0000 427.0000
v 25.0000 -194.0000 427.0000
v 25.0000 -191.0000 427.0000
v -25.0000 -191.0000 427.0000
v -25.0000 -194.0000 402.0000
v 25.0000 -194.0000 402.0000
v 25.0000 -191.0000 402.0000
v -25.0000 -191.0000 402.0000
v -25.0000 -189.0000 427.0000
v 25.0000 -189.0000 427.0000
v 25.0000 -186.0000 427.0000
v -25.0000 -186.0000 427.0000
v -25.0000 -189.0000 402.0000
v 25.0000 -189.0000 402.0000
v 25.0000 -186.0000 402.0000
v -25.0000 -186.0000 402.0000
v -25.0000 -189.0000 402.0000
v 25.0000 -189.0000 402.0000
v 25.0000 -186.0000 402.0000
v -25.0000 -186.0000 402.0000
v -25.0000 -189.0000 400.0000
v 25.0000 -189.0000 400.0000
v 25.0000 -186.0000 400.0000
v -25.0000 -186.0000 400.0000
v -25.0000 -184.0000 427.0000
v 25.0000 -184.0000 427.0000
v 25.0000 -181.0000 427.0000
v -25.0000 -181.0000 427.0000
v -25.0000 -184.0000 402.0000
v 25.0000 -184.0000 402.0000
v 25.0000 -181.0000 402.0000
v -25.0000 -181.0000 402.0000
v -25.0000 -179.0000 427.0000
v 25.0000 -179.0000 427.0000
v 25.0000 -176.0000 427.0000
v -25.0000 -176.0000 427.0000
v -25.0000 -179.0000 402.0000
v 25.0000 -179.0000 402.0000
v 25.0000 -176.0000 402.0000
v -25.0000 -176.0000 402.0000
v -25.0000 -179.0000 402.0000
v 25.0000 -179.0000 402.0000
v 25.0000 -176.0000 402.0000
v -25.0000 -176.0000 402.0000
v -25.0000 -179.0000 400.0000
v 25.0000 -179.0000 400.0000
v 25.0000 -176.0000 400.0000
v -25.0000 -176.0000 400.0000
v -25.0000 -174.0000 427.0000
v 25.0000 -174.0000 427.0000
v 25.0000 -171.0000 427.0000
v -25.0000 -171.0000 427.0000
v -25.0000 -174.0000 402.0000
v 25.0000 -174.0000 402.0000
v 25.0000 -171.0000 402.0000
v -25.0000 -171.0000 402.0000
v -25.0000 -169.0000 427.0000
v 25.0000 -169.0000 427.0000
v 25.0000 -166.0000 427.0000
v -25.0000 -166.0000 427.0000
v -25.0000 -169.0000 402.0000
v 25.0000 -169.0000 402.0000
v 25.0000 -166.0000 402.0000
v -25.0000 -166.0000 402.0000
v -25.0000 -169.0000 402.0000
v 25.0000 -169.0000 402.0000
v 25.0000 -166.0000 402.0000
v -25.0000 -166.0000 402.0000
v -25.0000 -169.0000 400.0000
v 25.0000 -169.0000 400.0000
v 25.0000 -166.0000 400.0000
v -25.0000 -166.0000 400.0000
v -25.0000 -164.0000 427.0000
v 25.0000 -164.0000 427.0000
v 25.0000 -161.0000 427.0000
v -25.0000 -161.0000 427.0000
v -25.0000 -164.0000 402.0000
v 25.0000 -164.0000 402.0000
v 25.0000 -161.0000 402.0000
v -25.0000 -161.0000 402.0000
v -25.0000 -159.0000 427.0000
v 25.0000 -159.0000 427.0000
v 25.0000 -156.0000 427.0000
v -25.0000 -156.0000 427.0000
v -25.0000 -159.0000 402.0000
v 25.0000 -159.0000 402.0000
v 25.0000 -156.0000 402.0000
v -25.0000 -156.0000 402.0000
v -25.0000 -159.0000 402.0000
v 25.0000 -159.0000 402.0000
v 25.0000 -156.0000 402.0000
v -25.0000 -156.0000 402.0000
v -25.0000 -159.0000 400.0000
v 25.0000 -159.0000 400.0000
v 25.0000 -156.0000 400.0000
v -25.0000 -156.0000 400.0000
v -25.0000 -154.0000 427.0000
v 25.0000 -154.0000 427.0000
v 25.0000 -151.0000 427.0000
v -25.0000 -151.0000 427.0000
v -25.0000 -154.0000 402.0000
v 25.0000 -154.0000 402.0000
v 25.0000 -151.0000 402.0000
v -25.0000 -151.0000 402.0000
v -25.0000 -149.0000 427.0000
v 25.0000 -149.0000 427.0000
v 25.0000 -146.0000 427.0000
v -25.0000 -146.0000 427.0000
v -25.0000 -149.0000 402.0000
v 25.0000 -149.0000 402.0000
v 25.0000 -146.0000 402.0000
v -25.0000 -146.0000 402.0000
v -25.0000 -149.0000 402.0000
v 25.0000 -149.0000 402.0000
v 25.0000 -146.0000 402.0000
v -25.0000 -146.0000 402.0000
v -25.0000 -149.0000 400.0000
v 25.0000 -149.0000 400.0000
v 25.0000 -146.0000 400.0000
v -25.0000 -146.0000 400.0000
v -25.0000 -144.0000 427.0000
v 25.0000 -144.0000 427.0000
v 25.0000 -141.0000 427.0000
v -25.0000 -141.0000 427.0000
v -25.0000 -144.0000 402.0000
v 25.0000 -144.0000 402.0000
v 25.0000 -141.0000 402.0000
v -25.0000 -141.0000 402.0000
v -25.0000 -139.0000 427.0000
v 25.0000 -139.0000 427.0000
v 25.0000 -136.0000 427.0000
v -25.0000 -136.0000 427.0000
v -25.0000 -139.0000 402.0000
v 25.0000 -139.0000 402.0000
v 25.0000 -136.0000 402.0000
v -25.0000 -136.0000 402.0000
v -25.0000 -139.0000 402.0000
v 25.0000 -139.0000 402.0000
v 25.0000 -136.0000 402.0000
v -25.0000 -136.0000 402.0000
v -25.0000 -139.0000 400.0000
v 25.0000 -139.0000 400.0000
v 25.0000 -136.0000 400.0000
v -25.0000 -136.0000 400.0000
v -25.0000 -134.0000 427.0000
v 25.0000 -134.0000 427.0000
v 25.0000 -131.0000 427.0000
v -25.0000 -131.0000 427.0000
v -25.0000 -134.0000 402.0000
v 25.0000 -134.0000 402.0000
v 25.0000 -131.0000 402.0000
v -25.0000 -131.0000 402.0000
v -25.0000 -129.0000 427.0000
v 25.0000 -129.0000 427.0000
v 25.0000 -126.0000 427.0000
v -25.0000 -126.0000 427.0000
v -25.0000 -129.0000 402.0000
v 25.0000 -129.0000 402.0000
v 25.0000 -126.0000 402.0000
v -25.0000 -126.0000 402.0000
v -25.0000 -129.0000 402.0000
v 25.0000 -129.0000 402.0000
v 25.0000 -126.0000 402.0000
v -25.0000 -126.0000 402.0000
v -25.0000 -129.0000 400.0000
v 25.0000 -129.0000 400.0000
v 25.0000 -126.0000 400.0000
v -25.0000 -126.0000 400.0000
v -25.0000 -124.0000 427.0000
v 25.0000 -124.0000 427.0000
v 25.0000 -121.0000 427.0000
v -25.0000 -121.0000 427.0000
v -25.0000 -124.0000 402.0000
v 25.0000 -124.0000 402.0000
v 25.0000 -121.0000 402.0000
v -25.0000 -121.0000 402.0000
v -25.0000 -119.0000 427.0000
v 25.0000 -119.0000 427.0000
v 25.0000 -116.0000 427.0000
v -25.0000 -116.0000 427.0000
v -25.0000 -119.0000 402.0000
v 25.0000 -119.0000 402.0000
v 25.0000 -116.0000 402.0000
v -25.0000 -116.0000 402.0000
v -25.0000 -119.0000 402.0000
v 25.0000 -119.0000 402.0000
v 25.0000 -116.0000 402.0000
v -25.0000 -116.0000 402.0000
v -25.0000 -119.0000 400.0000
v 25.0000 -119.0000 400.0000
v 25.0000 -116.0000 400.0000
v -25.0000 -116.0000 400.0000
v -25.0000 -114.0000 427.0000
v 25.0000 -114.0000 427.0000
v 25.0000 -111.0000 427.0000
v -25.0000 -111.0000 427.0000
v -25.0000 -114.0000 402.0000
v 25.0000 -114.0000 402.0000
v 25.0000 -111.0000 402.0000
v -25.0000 -111.0000 402.0000
v -25.0000 -109.0000 427.0000
v 25.0000 -109.0000 427.0000
v 25.0000 -106.0000 427.0000
v -25.0000 -106.0000 427.0000
v -25.0000 -109.0000 402.0000
v 25.0000 -109.0000 402.0000
v 25.0000 -106.0000 402.0000
v -25.0000 -106.0000 402.0000
v -25.0000 -109.0000 402.0000
v 25.0000 -109.0000 402.0000
v 25.0000 -106.0000 402.0000
v -25.0000 -106.0000 402.0000
v -25.0000 -109.0000 400.0000
v 25.0000 -109.0000 400.0000
v 25.0000 -106.0000 400.0000
v -25.0000 -106.0000 400.0000
v -25.0000 -104.0000 427.0000
v 25.0000 -104.0000 427.0000
v 25.0000 -101.0000 427.0000
v -25.0000 -101.0000 427.0000
v -25.0000 -104.0000 402.0000
v 25.0000 -104.0000 402.0000
v 25.0000 -101.0000 402.0000
v -25.0000 -101.0000 402.0000
v -25.0000 -99.0000 427.0000
v 25.0000 -99.0000 427.0000
v 25.0000 -96.0000 427.0000
v -25.0000 -96.0000 427.0000
v -25.0000 -99.0000 402.0000
v 25.0000 -99.0000 402.0000
v 25.0000 -96.0000 402.0000
v -25.0000 -96.0000 402.0000
v -25.0000 -99.0000 402.0000
v 25.0000 -99.0000 402.0000
v 25.0000 -96.0000 402.0000
v -25.0000 -96.0000 402.0000
v -25.0000 -99.0000 400.0000
v 25.0000 -99.0000 400.0000
v 25.0000 -96.0000 400.0000
v -25.0000 -96.0000 400.0000
v -25.0000 -94.0000 427.0000
v 25.0000 -94.0000 427.0000
v 25.0000 -91.0000 427.0000
v -25.0000 -91.0000 427.0000
v -25.0000 -94.0000 402.0000
v 25.0000 -94.0000 402.0000
v 25.0000 -91.0000 402.0000
v -25.0000 -91.0000 402.0000
v -25.0000 -89.0000 427.0000
v 25.0000 -89.0000 427.0000
v 25.0000 -86.0000 427.0000
v -25.0000 -86.0000 427.0000
v -25.0000 -89.0000 402.0000
v 25.0000 -89.0000 402.0000
v 25.0000 -86.0000 402.0000
v -25.0000 -86.0000 402.0000
v -25.0000 -89.0000 402.0000
v 25.0000 -89.0000 402.0000
v 25.0000 -86.0000 402.0000
v -25.0000 -86.0000 402.0000
v -25.0000 -89.0000 400.0000
v 25.0000 -89.0000 400.0000
v 25.0000 -86.0000 400.0000
v -25.0000 -86.0000 400.0000
v -25.0000 -84.0000 427.0000
v 25.0000 -84.0000 427.0000
v 25.0000 -81.0000 427.0000
v -25.0000 -81.0000 427.0000
v -25.0000 -84.0000 402.0000
v 25.0000 -84.0000 402.0000
v 25.0000 -81.0000 402.0000
v -25.0000 -81.0000 402.0000
v -25.0000 -79.0000 427.0000
v 25.0000 -79.0000 427.0000
v 25.0000 -76.0000 427.0000
v -25.0000 -76.0000 427.0000
v -25.0000 -79.0000 402.0000
v 25.0000 -79.0000 402.0000
v 25.0000 -76.0000 402.0000
v -25.0000 -76.0000 402.0000
v -25.0000 -79.0000 402.0000
v 25.0000 -79.0000 402.0000
v 25.0000 -76.0000 402.0000
v -25.0000 -76.0000 402.0000
v -25.0000 -79.0000 400.0000
v 25.0000 -79.0000 400.0000
v 25.0000 -76.0000 400.0000
v -25.0000 -76.0000 400.0000
v -25.0000 -74.0000 427.0000
v 25.0000 -74.0000 427.0000
v 25.0000 -71.0000 427.0000
v -25.0000 -71.0000 427.0000
v -25.0000 -74.0000 402.0000
v 25.0000 -74.0000 402.0000
v 25.0000 -71.0000 402.0000
v -25.0000 -71.0000 402.0000
v -25.0000 -69.0000 427.0000
v 25.0000 -69.0000 427.0000
v 25.0000 -66.0000 427.0000
v -25.0000 -66.0000 427.0000
v -25.0000 -69.0000 402.0000
v 25.0000 -69.0000 402.0000
v 25.0000 -66.0000 402.0000
v -25.0000 -66.0000 402.0000
v -25.0000 -69.0000 402.0000
v 25.0000 -69.0000 402.0000
v 25.0000 -66.0000 402.0000
v -25.0000 -66.0000 402.0000
v -25.0000 -69.0000 400.0000
v 25.0000 -69.0000 400.0000
v 25.0000 -66.0000 400.0000
v -25.0000 -66.0000 400.0000
v -25.0000 -64.0000 427.0000
v 25.0000 -64.0000 427.0000
v 25.0000 -61.0000 427.0000
v -25.0000 -61.0000 427.0000
v -25.0000 -64.0000 402.0000
v 25.0000 -64.0000 402.0000
v 25.0000 -61.0000 402.0000
v -25.0000 -61.0000 402.0000
v -25.0000 -59.0000 427.0000
v 25.0000 -59.0000 427.0000
v 25.0000 -56.0000 427.0000
v -25.0000 -56.0000 427.0000
v -25.0000 -59.0000 402.0000
v 25.0000 -59.0000 402.0000
v 25.0000 -56.0000 402.0000
v -25.0000 -56.0000 402.0000
v -25.0000 -59.0000 402.0000
v 25.0000 -59.0000 402.0000
v 25.0000 -56.0000 402.0000
v -25.0000 -56.0000 402.0000
v -25.0000 -59.0000 400.0000
v 25.0000 -59.0000 400.0000
v 25.0000 -56.0000 400.0000
v -25.0000 -56.0000 400.0000
v -25.0000 -54.0000 427.0000
v 25.0000 -54.0000 427.0000
v 25.0000 -51.0000 427.0000
v -25.0000 -51.0000 427.0000
v -25.0000 -54.0000 402.0000
v 25.0000 -54.0000 402.0000
v 25.0000 -51.0000 402.0000
v -25.0000 -51.0000 402.0000
v -25.0000 -49.0000 427.0000
v 25.0000 -49.0000 427.0000
v 25.0000 -46.0000 427.0000
v -25.0000 -46.0000 427.0000
v -25.0000 -49.0000 402.0000
v 25.0000 -49.0000 402.0000
v 25.0000 -46.0000 402.0000
v -25.0000 -46.0000 402.0000
v -25.0000 -49.0000 402.0000
v 25.0000 -49.0000 402.0000
v 25.0000 -46.0000 402.0000
v -25.0000 -46.0000 402.0000
v -25.0000 -49.0000 400.0000
v 25.0000 -49.0000 400.0000
v 25.0000 -46.0000 400.0000
v -25.0000 -46.0000 400.0000
v -25.0000 -44.0000 427.0000
v 25.0000 -44.0000 427.0000
v 25.0000 -41.0000 427.0000
v -25.0000 -41.0000 427.0000
v -25.0000 -44.0000 402.0000
v 25.0000 -44.0000 402.0000
v 25.0000 -41.0000 402.0000
v -25.0000 -41.0000 402.0000
v -25.0000 -39.0000 427.0000
v 25.0000 -39.0000 427.0000
v 25.0000 -36.0000 427.0000
v -25.0000 -36.0000 427.0000
v -25.0000 -39.0000 402.0000
v 25.0000 -39.0000 402.0000
v 25.0000 -36.0000 402.0000
v -25.0000 -36.0000 402.0000
v -25.0000 -39.0000 402.0000
v 25.0000 -39.0000 402.0000
v 25.0000 -36.0000 402.0000
v -25.0000 -36.0000 402.0000
v -25.0000 -39.0000 400.0000
v 25.0000 -39.0000 400.0000
v 25.0000 -36.0000 400.0000
v -25.0000 -36.0000 400.0000
v -25.0000 -34.0000 427.0000
v 25.0000 -34.0000 427.0000
v 25.0000 -31.0000 427.0000
v -25.0000 -31.0000 427.0000
v -25.0000 -34.0000 402.0000
v 25.0000 -34.0000 402.0000
v 25.0000 -31.0000 402.0000
v -25.0000 -31.0000 402.0000
v -25.0000 -29.0000 427.0000
v 25.0000 -29.0000 427.0000
v 25.0000 -26.0000 427.0000
v -25.0000 -26.0000 427.0000
v -25.0000 -29.0000 402.0000
v 25.0000 -29.0000 402.0000
v 25.0000 -26.0000 402.0000
v -25.0000 -26.0000 402.0000
v -25.0000 -29.0000 402.0000
v 25.0000 -29.0000 402.0000
v 25.0000 -26.0000 402.0000
v -25.0000 -26.0000 402.0000
v -25.0000 -29.0000 400.0000
v 25.0000 -29.0000 400.0000
v 25.0000 -26.0000 400.0000
v -25.0000 -26.0000 400.0000
v -25.0000 -24.0000 427.0000
v 25.0000 -24.0000 427.0000
v 25.0000 -21.0000 427.0000
v -25.0000 -21.0000 427.0000
v -25.0000 -24.0000 402.0000
v 25.0000 -24.0000 402.0000
v 25.0000 -21.0000 402.0000
v -25.0000 -21.0000 402.0000
v -25.0000 -19.0000 427.0000
v 25.0000 -19.0000 427.0000
v 25.0000 -16.0000 427.0000
v -25.0000 -16.0000 427.0000
v -25.0000 -19.0000 402.0000
v 25.0000 -19.0000 402.0000
v 25.0000 -16.0000 402.0000
v -25.0000 -16.0000 402.0000
v -25.0000 -19.0000 402.0000
v 25.0000 -19.0000 402.0000
v 25.0000 -16.0000 402.0000
v -25.0000 -16.0000 402.0000
v -25.0000 -19.0000 400.0000
v 25.0000 -19.0000 400.0000
v 25.0000 -16.0000 400.0000
v -25.0000 -16.0000 400.0000
v -25.0000 -14.0000 427.0000
v 25.0000 -14.0000 427.0000
v 25.0000 -11.0000 427.0000
v -25.0000 -11.0000 427.0000
v -25.0000 -14.0000 402.0000
v 25.0000 -14.0000 402.0000
v 25.0000 -11.0000 402.0000
v -25.0000 -11.0000 402.0000
v -25.0000 -9.0000 427.0000
v 25.0000 -9.0000 427.0000
v 25.0000 -6.0000 427.0000
v -25.0000 -6.0000 427.0000
v -25.0000 -9.0000 402.0000
v 25.0000 -9.0000 402.0000
v 25.0000 -6.0000 402.0000
v -25.0000 -6.0000 402.0000
v -25.0000 -9.0000 402.0000
v 25.0000 -9.0000 402.0000
v 25.0000 -6.0000 402.0000
v -25.0000 -6.0000 402.0000
v -25.0000 -9.0000 400.0000
v 25.0000 -9.0000 400.0000
v 25.0000 -6.0000 400.0000
v -25.0000 -6.0000 400.0000
v -25.0000 -4.0000 427.0000
v 25.0000 -4.0000 427.0000
v 25.0000 -1.0000 427.0000
v -25.0000 -1.0000 427.0000
v -25.0000 -4.0000 402.0000
v 25.0000 -4.0000 402.0000
v 25.0000 -1.0000 402.0000
v -25.0000 -1.0000 402.0000
v -25.0000 1.0000 427.0000
v 25.0000 1.0000 427.0000
v 25.0000 4.0000 427.0000
v -25.0000 4.0000 427.0000
v -25.0000 1.0000 402.0000
v 25.0000 1.0000 402.0000
v 25.0000 4.0000 402.0000
v -25.0000 4.0000 402.0000
v -25.0000 1.0000 402.0000
v 25.0000 1.0000 402.0000
v 25.0000 4.0000 402.0000
v -25.0000 4.0000 402.0000
v -25.0000 1.0000 400.0000
v 25.0000 1.0000 400.0000
v 25.0000 4.0000 400.0000
v -25.0000 4.0000 400.0000
v -25.0000 6.0000 427.0000
v 25.0000 6.0000 427.0000
v 25.0000 9.0000 427.0000
v -25.0000 9.0000 427.0000
v -25.0000 6.0000 402.0000
v 25.0000 6.0000 402.0000
v 25.0000 9.0000 402.0000
v -25.0000 9.0000 402.0000
v -25.0000 11.0000 427.0000
v 25.0000 11.0000 427.0000
v 25.0000 14.0000 427.0000
v -25.0000 14.0000 427.0000
v -25.0000 11.0000 402.0000
v 25.0000 11.0000 402.0000
v 25.0000 14.0000 402.0000
v -25.0000 14.0000 402.0000
v -25.0000 11.0000 402.0000
v 25.0000 11.0000 402.0000
v 25.0000 14.0000 402.0000
v -25.0000 14.0000 402.0000
v -25.0000 11.0000 400.0000
v 25.0000 11.0000 400.0000
v 25.0000 14.0000 400.0000
v -25.0000 14.0000 400.0000
v -25.0000 16.0000 427.0000
v 25.0000 16.0000 427.0000
v 25.0000 19.0000 427.0000
v -25.0000 19.0000 427.0000
v -25.0000 16.0000 402.0000
v 25.0000 16.0000 402.0000
v 25.0000 19.0000 402.0000
v -25.0000 19.0000 402.0000
v -25.0000 21.0000 427.0000
v 25.0000 21.0000 427.0000
v 25.0000 24.0000 427.0000
v -25.0000 24.0000 427.0000
v -25.0000 21.0000 402.0000
v 25.0000 21.0000 402.0000
v 25.0000 24.0000 402.0000
v -25.0000 24.0000 402.0000
v -25.0000 21.0000 402.0000
v 25.0000 21.0000 402.0000
v 25.0000 24.0000 402.0000
v -25.0000 24.0000 402.0000
v -25.0000 21.0000 400.0000
v 25.0000 21.0000 400.0000
v 25.0000 24.0000 400.0000
v -25.0000 24.0000 400.0000
v 260.0000 120.0000 428.0000
v 380.0000 120.0000 428.0000
v 380.0000 240.0000 428.0000
v 260.0000 240.0000 428.0000
v 260.0000 120.0000 427.0000
v 380.0000 120.0000 427.0000
v 380.0000 240.0000 427.0000
v 260.0000 240.0000 427.0000
g HANDLE
usemtl HANDLE
f 1 2 3
f 1 3 4
f 5 7 6
f 5 8 7
f 5 8 4
f 5 4 1
f 7 6 2
f 7 2 3
f 6 5 1
f 6 1 2
f 8 7 3
f 8 3 4
g DEVICE
usemtl DEVICE
f 9 10 11
f 9 11 12
f 13 15 14
f 13 16 15
f 13 16 12
f 13 12 9
f 14 13 9
f 14 9 10
f 12 11 17
f 12 17 18
f 16 19 15
f 16 20 19
f 16 20 18
f 16 18 12
f 19 15 11
f 19 11 17
f 18 17 21
f 18 21 22
f 20 23 19
f 20 24 23
f 20 24 22
f 20 22 18
f 22 21 25
f 22 25 26
f 24 27 23
f 24 28 27
f 24 28 26
f 24 26 22
f 27 23 21
f 27 21 25
f 26 25 29
f 26 29 30
f 28 31 27
f 28 32 31
f 28 32 30
f 28 30 26
f 30 29 33
f 30 33 34
f 32 35 31
f 32 36 35
f 32 36 34
f 32 34 30
f 35 31 29
f 35 29 33
f 34 33 37
f 34 37 38
f 36 39 35
f 36 40 39
f 36 40 38
f 36 38 34
f 38 37 41
f 38 41 42
f 40 43 39
f 40 44 43
f 40 44 42
f 40 42 38
f 43 39 37
f 43 37 41
f 42 41 45
f 42 45 46
f 44 47 43
f 44 48 47
f 44 48 46
f 44 46 42
f 46 45 49
f 46 49 50
f 48 51 47
f 48 52 51
f 48 52 50
f 48 50 46
f 51 47 45
f 51 45 49
f 50 49 53
f 50 53 54
f 52 55 51
f 52 56 55
f 52 56 54
f 52 54 50
f 54 53 57
f 54 57 58
f 56 59 55
f 56 60 59
f 56 60 58
f 56 58 54
f 59 55 53
f 59 53 57
f 58 57 61
f 58 61 62
f 60 63 59
f 60 64 63
f 60 64 62
f 60 62 58
f 62 61 65
f 62 65 66
f 64 67 63
f 64 68 67
f 64 68 66
f 64 66 62
f 67 63 61
f 67 61 65
f 66 65 69
f 66 69 70
f 68 71 67
f 68 72 71
f 68 72 70
f 68 70 66
f 72 71 69
f 72 69 70
f 10 73 74
f 10 74 11
f 14 76 75
f 14 15 76
f 75 14 10
f 75 10 73
f 15 76 74
f 15 74 11
f 17 77 78
f 17 78 21
f 19 80 79
f 19 23 80
f 79 19 17
f 79 17 77
f 23 80 78
f 23 78 21
f 25 81 82
f 25 82 29
f 27 84 83
f 27 31 84
f 83 27 25
f 83 25 81
f 31 84 82
f 31 82 29
f 33 85 86
f 33 86 37
f 35 88 87
f 35 39 88
f 87 35 33
f 87 33 85
f 39 88 86
f 39 86 37
f 41 89 90
f 41 90 45
f 43 92 91
f 43 47 92
f 91 43 41
f 91 41 89
f 47 92 90
f 47 90 45
f 49 93 94
f 49 94 53
f 51 96 95
f 51 55 96
f 95 51 49
f 95 49 93
f 55 96 94
f 55 94 53
f 57 97 98
f 57 98 61
f 59 100 99
f 59 63 100
f 99 59 57
f 99 57 97
f 63 100 98
f 63 98 61
f 65 101 102
f 65 102 69
f 67 104 103
f 67 71 104
f 103 67 65
f 103 65 101
f 71 104 102
f 71 102 69
f 73 105 106
f 73 106 74
f 75 108 107
f 75 76 108
f 107 75 73
f 107 73 105
f 74 106 109
f 74 109 77
f 76 110 108
f 76 79 110
f 76 79 77
f 76 77 74
f 110 108 106
f 110 106 109
f 77 109 111
f 77 111 78
f 79 112 110
f 79 80 112
f 78 111 113
f 78 113 81
f 80 114 112
f 80 83 114
f 80 83 81
f 80 81 78
f 114 112 111
f 114 111 113
f 81 113 115
f 81 115 82
f 83 116 114
f 83 84 116
f 82 115 117
f 82 117 85
f 84 118 116
f 84 87 118
f 84 87 85
f 84 85 82
f 118 116 115
f 118 115 117
f 85 117 119
f 85 119 86
f 87 120 118
f 87 88 120
f 86 119 121
f 86 121 89
f 88 122 120
f 88 91 122
f 88 91 89
f 88 89 86
f 122 120 119
f 122 119 121
f 89 121 123
f 89 123 90
f 91 124 122
f 91 92 124
f 90 123 125
f 90 125 93
f 92 126 124
f 92 95 126
f 92 95 93
f 92 93 90
f 126 124 123
f 126 123 125
f 93 125 127
f 93 127 94
f 95 128 126
f 95 96 128
f 94 127 129
f 94 129 97
f 96 130 128
f 96 99 130
f 96 99 97
f 96 97 94
f 130 128 127
f 130 127 129
f 97 129 131
f 97 131 98
f 99 132 130
f 99 100 132
f 98 131 133
f 98 133 101
f 100 134 132
f 100 103 134
f 100 103 101
f 100 101 98
f 134 132 131
f 134 131 133
f 101 133 135
f 101 135 102
f 103 136 134
f 103 104 136
f 104 136 135
f 104 135 102
f 105 137 138
f 105 138 106
f 107 140 139
f 107 108 140
f 139 107 105
f 139 105 137
f 108 140 138
f 108 138 106
f 109 141 142
f 109 142 111
f 110 144 143
f 110 112 144
f 143 110 109
f 143 109 141
f 112 144 142
f 112 142 111
f 113 145 146
f 113 146 115
f 114 148 147
f 114 116 148
f 147 114 113
f 147 113 145
f 116 148 146
f 116 146 115
f 117 149 150
f 117 150 119
f 118 152 151
f 118 120 152
f 151 118 117
f 151 117 149
f 120 152 150
f 120 150 119
f 121 153 154
f 121 154 123
f 122 156 155
f 122 124 156
f 155 122 121
f 155 121 153
f 124 156 154
f 124 154 123
f 125 157 158
f 125 158 127
f 126 160 159
f 126 128 160
f 159 126 125
f 159 125 157
f 128 160 158
f 128 158 127
f 129 161 162
f 129 162 131
f 130 164 163
f 130 132 164
f 163 130 129
f 163 129 161
f 132 164 162
f 132 162 131
f 133 165 166
f 133 166 135
f 134 168 167
f 134 136 168
f 167 134 133
f 167 133 165
f 136 168 166
f 136 166 135
f 137 169 170
f 137 170 138
f 139 172 171
f 139 140 172
f 171 139 137
f 171 137 169
f 138 170 173
f 138 173 141
f 140 174 172
f 140 143 174
f 140 143 141
f 140 141 138
f 174 172 170
f 174 170 173
f 141 173 175
f 141 175 142
f 143 176 174
f 143 144 176
f 142 175 177
f 142 177 145
f 144 178 176
f 144 147 178
f 144 147 145
f 144 145 142
f 178 176 175
f 178 175 177
f 145 177 179
f 145 179 146
f 147 180 178
f 147 148 180
f 146 179 181
f 146 181 149
f 148 182 180
f 148 151 182
f 148 151 149
f 148 149 146
f 182 180 179
f 182 179 181
f 149 181 183
f 149 183 150
f 151 184 182
f 151 152 184
f 150 183 185
f 150 185 153
f 152 186 184
f 152 155 186
f 152 155 153
f 152 153 150
f 186 184 183
f 186 183 185
f 153 185 187
f 153 187 154
f 155 188 186
f 155 156 188
f 154 187 189
f 154 189 157
f 156 190 188
f 156 159 190
f 156 159 157
f 156 157 154
f 190 188 187
f 190 187 189
f 157 189 191
f 157 191 158
f 159 192 190
f 159 160 192
f 158 191 193
f 158 193 161
f 160 194 192
f 160 163 194
f 160 163 161
f 160 161 158
f 194 192 191
f 194 191 193
f 161 193 195
f 161 195 162
f 163 196 194
f 163 164 196
f 162 195 197
f 162 197 165
f 164 198 196
f 164 167 198
f 164 167 165
f 164 165 162
f 198 196 195
f 198 195 197
f 165 197 199
f 165 199 166
f 167 200 198
f 167 168 200
f 168 200 199
f 168 199 166
f 169 201 202
f 169 202 170
f 171 204 203
f 171 172 204
f 203 171 169
f 203 169 201
f 172 204 202
f 172 202 170
f 173 205 206
f 173 206 175
f 174 208 207
f 174 176 208
f 207 174 173
f 207 173 205
f 176 208 206
f 176 206 175
f 177 209 210
f 177 210 179
f 178 212 211
f 178 180 212
f 211 178 177
f 211 177 209
f 180 212 210
f 180 210 179
f 181 213 214
f 181 214 183
f 182 216 215
f 182 184 216
f 215 182 181
f 215 181 213
f 184 216 214
f 184 214 183
f 185 217 218
f 185 218 187
f 186 220 219
f 186 188 220
f 219 186 185
f 219 185 217
f 188 220 218
f 188 218 187
f 189 221 222
f 189 222 191
f 190 224 223
f 190 192 224
f 223 190 189
f 223 189 221
f 192 224 222
f 192 222 191
f 193 225 226
f 193 226 195
f 194 228 227
f 194 196 228
f 227 194 193
f 227 193 225
f 196 228 226
f 196 226 195
f 197 229 230
f 197 230 199
f 198 232 231
f 198 200 232
f 231 198 197
f 231 197 229
f 200 232 230
f 200 230 199
f 201 233 234
f 201 234 202
f 203 236 235
f 203 204 236
f 235 203 201
f 235 201 233
f 202 234 237
f 202 237 205
f 204 238 236
f 204 207 238
f 204 207 205
f 204 205 202
f 238 236 234
f 238 234 237
f 205 237 239
f 205 239 206
f 207 240 238
f 207 208 240
f 206 239 241
f 206 241 209
f 208 242 240
f 208 211 242
f 208 211 209
f 208 209 206
f 242 240 239
f 242 239 241
f 209 241 243
f 209 243 210
f 211 244 242
f 211 212 244
f 210 243 245
f 210 245 213
f 212 246 244
f 212 215 246
f 212 215 213
f 212 213 210
f 246 244 243
f 246 243 245
f 213 245 247
f 213 247 214
f 215 248 246
f 215 216 248
f 214 247 249
f 214 249 217
f 216 250 248
f 216 219 250
f 216 219 217
f 216 217 214
f 250 248 247
f 250 247 249
f 217 249 251
f 217 251 218
f 219 252 250
f 219 220 252
f 218 251 253
f 218 253 221
f 220 254 252
f 220 223 254
f 220 223 221
f 220 221 218
f 254 252 251
f 254 251 253
f 221 253 255
f 221 255 222
f 223 256 254
f 223 224 256
f 222 255 257
f 222 257 225
f 224 258 256
f 224 227 258
f 224 227 225
f 224 225 222
f 258 256 255
f 258 255 257
f 225 257 259
f 225 259 226
f 227 260 258
f 227 228 260
f 226 259 261
f 226 261 229
f 228 262 260
f 228 231 262
f 228 231 229
f 228 229 226
f 262 260 259
f 262 259 261
f 229 261 263
f 229 263 230
f 231 264 262
f 231 232 264
f 232 264 263
f 232 263 230
f 233 265 266
f 233 266 234
f 235 268 267
f 235 236 268
f 267 235 233
f 267 233 265
f 236 268 266
f 236 266 234
f 237 269 270
f 237 270 239
f 238 272 271
f 238 240 272
f 271 238 237
f 271 237 269
f 240 272 270
f 240 270 239
f 241 273 274
f 241 274 243
f 242 276 275
f 242 244 276
f 275 242 241
f 275 241 273
f 244 276 274
f 244 274 243
f 245 277 278
f 245 278 247
f 246 280 279
f 246 248 280
f 279 246 245
f 279 245 277
f 248 280 278
f 248 278 247
f 249 281 282
f 249 282 251
f 250 284 283
f 250 252 284
f 283 250 249
f 283 249 281
f 252 284 282
f 252 282 251
f 253 285 286
f 253 286 255
f 254 288 287
f 254 256 288
f 287 254 253
f 287 253 285
f 256 288 286
f 256 286 255
f 257 289 290
f 257 290 259
f 258 292 291
f 258 260 292
f 291 258 257
f 291 257 289
f 260 292 290
f 260 290 259
f 261 293 294
f 261 294 263
f 262 296 295
f 262 264 296
f 295 262 261
f 295 261 293
f 264 296 294
f 264 294 263
f 265 297 298
f 265 298 266
f 267 300 299
f 267 268 300
f 299 267 265
f 299 265 297
f 266 298 301
f 266 301 269
f 268 302 300
f 268 271 302
f 268 271 269
f 268 269 266
f 302 300 298
f 302 298 301
f 269 301 303
f 269 303 270
f 271 304 302
f 271 272 304
f 270 303 305
f 270 305 273
f 272 306 304
f 272 275 306
f 272 275 273
f 272 273 270
f 306 304 303
f 306 303 305
f 273 305 307
f 273 307 274
f 275 308 306
f 275 276 308
f 274 307 309
f 274 309 277
f 276 310 308
f 276 279 310
f 276 279 277
f 276 277 274
f 310 308 307
f 310 307 309
f 277 309 311
f 277 311 278
f 279 312 310
f 279 280 312
f 278 311 313
f 278 313 281
f 280 314 312
f 280 283 314
f 280 283 281
f 280 281 278
f 314 312 311
f 314 311 313
f 281 313 315
f 281 315 282
f 283 316 314
f 283 284 316
f 282 315 317
f 282 317 285
f 284 318 316
f 284 287 318
f 284 287 285
f 284 285 282
f 318 316 315
f 318 315 317
f 285 317 319
f 285 319 286
f 287 320 318
f 287 288 320
f 286 319 321
f 286 321 289
f 288 322 320
f 288 291 322
f 288 291 289
f 288 289 286
f 322 320 319
f 322 319 321
f 289 321 323
f 289 323 290
f 291 324 322
f 291 292 324
f 290 323 325
f 290 325 293
f 292 326 324
f 292 295 326
f 292 295 293
f 292 293 290
f 326 324 323
f 326 323 325
f 293 325 327
f 293 327 294
f 295 328 326
f 295 296 328
f 296 328 327
f 296 327 294
f 297 329 330
f 297 330 298
f 299 332 331
f 299 300 332
f 331 299 297
f 331 297 329
f 300 332 330
f 300 330 298
f 301 333 334
f 301 334 303
f 302 336 335
f 302 304 336
f 335 302 301
f 335 301 333
f 304 336 334
f 304 334 303
f 305 337 338
f 305 338 307
f 306 340 339
f 306 308 340
f 339 306 305
f 339 305 337
f 308 340 338
f 308 338 307
f 309 341 342
f 309 342 311
f 310 344 343
f 310 312 344
f 343 310 309
f 343 309 341
f 312 344 342
f 312 342 311
f 313 345 346
f 313 346 315
f 314 348 347
f 314 316 348
f 347 314 313
f 347 313 345
f 316 348 346
f 316 346 315
f 317 349 350
f 317 350 319
f 318 352 351
f 318 320 352
f 351 318 317
f 351 317 349
f 320 352 350
f 320 350 319
f 321 353 354
f 321 354 323
f 322 356 355
f 322 324 356
f 355 322 321
f 355 321 353
f 324 356 354
f 324 354 323
f 325 357 358
f 325 358 327
f 326 360 359
f 326 328 360
f 359 326 325
f 359 325 357
f 328 360 358
f 328 358 327
f 329 361 362
f 329 362 330
f 331 364 363
f 331 332 364
f 363 331 329
f 363 329 361
f 330 362 365
f 330 365 333
f 332 366 364
f 332 335 366
f 332 335 333
f 332 333 330
f 366 364 362
f 366 362 365
f 333 365 367
f 333 367 334
f 335 368 366
f 335 336 368
f 334 367 369
f 334 369 337
f 336 370 368
f 336 339 370
f 336 339 337
f 336 337 334
f 370 368 367
f 370 367 369
f 337 369 371
f 337 371 338
f 339 372 370
f 339 340 372
f 338 371 373
f 338 373 341
f 340 374 372
f 340 343 374
f 340 343 341
f 340 341 338
f 374 372 371
f 374 371 373
f 341 373 375
f 341 375 342
f 343 376 374
f 343 344 376
f 342 375 377
f 342 377 345
f 344 378 376
f 344 347 378
f 344 347 345
f 344 345 342
f 378 376 375
f 378 375 377
f 345 377 379
f 345 379 346
f 347 380 378
f 347 348 380
f 346 379 381
f 346 381 349
f 348 382 380
f 348 351 382
f 348 351 349
f 348 349 346
f 382 380 379
f 382 379 381
f 349 381 383
f 349 383 350
f 351 384 382
f 351 352 384
f 350 383 385
f 350 385 353
f 352 386 384
f 352 355 386
f 352 355 353
f 352 353 350
f 386 384 383
f 386 383 385
f 353 385 387
f 353 387 354
f 355 388 386
f 355 356 388
f 354 387 389
f 354 389 357
f 356 390 388
f 356 359 390
f 356 359 357
f 356 357 354
f 390 388 387
f 390 387 389
f 357 389 391
f 357 391 358
f 359 392 390
f 359 360 392
f 360 392 391
f 360 391 358
f 361 393 394
f 361 394 362
f 363 396 395
f 363 364 396
f 395 363 361
f 395 361 393
f 364 396 394
f 364 394 362
f 365 397 398
f 365 398 367
f 366 400 399
f 366 368 400
f 399 366 365
f 399 365 397
f 368 400 398
f 368 398 367
f 369 401 402
f 369 402 371
f 370 404 403
f 370 372 404
f 403 370 369
f 403 369 401
f 372 404 402
f 372 402 371
f 373 405 406
f 373 406 375
f 374 408 407
f 374 376 408
f 407 374 373
f 407 373 405
f 376 408 406
f 376 406 375
f 377 409 410
f 377 410 379
f 378 412 411
f 378 380 412
f 411 378 377
f 411 377 409
f 380 412 410
f 380 410 379
f 381 413 414
f 381 414 383
f 382 416 415
f 382 384 416
f 415 382 381
f 415 381 413
f 384 416 414
f 384 414 383
f 385 417 418
f 385 418 387
f 386 420 419
f 386 388 420
f 419 386 385
f 419 385 417
f 388 420 418
f 388 418 387
f 389 421 422
f 389 422 391
f 390 424 423
f 390 392 424
f 423 390 389
f 423 389 421
f 392 424 422
f 392 422 391
f 393 425 426
f 393 426 394
f 395 428 427
f 395 396 428
f 427 395 393
f 427 393 425
f 394 426 429
f 394 429 397
f 396 430 428
f 396 399 430
f 396 399 397
f 396 397 394
f 430 428 426
f 430 426 429
f 397 429 431
f 397 431 398
f 399 432 430
f 399 400 432
f 398 431 433
f 398 433 401
f 400 434 432
f 400 403 434
f 400 403 401
f 400 401 398
f 434 432 431
f 434 431 433
f 401 433 435
f 401 435 402
f 403 436 434
f 403 404 436
f 402 435 437
f 402 437 405
f 404 438 436
f 404 407 438
f 404 407 405
f 404 405 402
f 438 436 435
f 438 435 437
f 405 437 439
f 405 439 406
f 407 440 438
f 407 408 440
f 406 439 441
f 406 441 409
f 408 442 440
f 408 411 442
f 408 411 409
f 408 409 406
f 442 440 439
f 442 439 441
f 409 441 443
f 409 443 410
f 411 444 442
f 411 412 444
f 410 443 445
f 410 445 413
f 412 446 444
f 412 415 446
f 412 415 413
f 412 413 410
f 446 444 443
f 446 443 445
f 413 445 447
f 413 447 414
f 415 448 446
f 415 416 448
f 414 447 449
f 414 449 417
f 416 450 448
f 416 419 450
f 416 419 417
f 416 417 414
f 450 448 447
f 450 447 449
f 417 449 451
f 417 451 418
f 419 452 450
f 419 420 452
f 418 451 453
f 418 453 421
f 420 454 452
f 420 423 454
f 420 423 421
f 420 421 418
f 454 452 451
f 454 451 453
f 421 453 455
f 421 455 422
f 423 456 454
f 423 424 456
f 424 456 455
f 424 455 422
f 425 457 458
f 425 458 426
f 427 460 459
f 427 428 460
f 459 427 425
f 459 425 457
f 428 460 458
f 428 458 426
f 429 461 462
f 429 462 431
f 430 464 463
f 430 432 464
f 463 430 429
f 463 429 461
f 432 464 462
f 432 462 431
f 433 465 466
f 433 466 435
f 434 468 467
f 434 436 468
f 467 434 433
f 467 433 465
f 436 468 466
f 436 466 435
f 437 469 470
f 437 470 439
f 438 472 471
f 438 440 472
f 471 438 437
f 471 437 469
f 440 472 470
f 440 470 439
f 441 473 474
f 441 474 443
f 442 476 475
f 442 444 476
f 475 442 441
f 475 441 473
f 444 476 474
f 444 474 443
f 445 477 478
f 445 478 447
f 446 480 479
f 446 448 480
f 479 446 445
f 479 445 477
f 448 480 478
f 448 478 447
f 449 481 482
f 449 482 451
f 450 484 483
f 450 452 484
f 483 450 449
f 483 449 481
f 452 484 482
f 452 482 451
f 453 485 486
f 453 486 455
f 454 488 487
f 454 456 488
f 487 454 453
f 487 453 485
f 456 488 486
f 456 486 455
f 457 489 490
f 457 490 458
f 459 492 491
f 459 460 492
f 491 459 457
f 491 457 489
f 458 490 493
f 458 493 461
f 460 494 492
f 460 463 494
f 460 463 461
f 460 461 458
f 494 492 490
f 494 490 493
f 461 493 495
f 461 495 462
f 463 496 494
f 463 464 496
f 462 495 497
f 462 497 465
f 464 498 496
f 464 467 498
f 464 467 465
f 464 465 462
f 498 496 495
f 498 495 497
f 465 497 499
f 465 499 466
f 467 500 498
f 467 468 500
f 466 499 501
f 466 501 469
f 468 502 500
f 468 471 502
f 468 471 469
f 468 469 466
f 502 500 499
f 502 499 501
f 469 501 503
f 469 503 470
f 471 504 502
f 471 472 504
f 470 503 505
f 470 505 473
f 472 506 504
f 472 475 506
f 472 475 473
f 472 473 470
f 506 504 503
f 506 503 505
f 473 505 507
f 473 507 474
f 475 508 506
f 475 476 508
f 474 507 509
f 474 509 477
f 476 510 508
f 476 479 510
f 476 479 477
f 476 477 474
f 510 508 507
f 510 507 509
f 477 509 511
f 477 511 478
f 479 512 510
f 479 480 512
f 478 511 513
f 478 513 481
f 480 514 512
f 480 483 514
f 480 483 481
f 480 481 478
f 514 512 511
f 514 511 513
f 481 513 515
f 481 515 482
f 483 516 514
f 483 484 516
f 482 515 517
f 482 517 485
f 484 518 516
f 484 487 518
f 484 487 485
f 484 485 482
f 518 516 515
f 518 515 517
f 485 517 519
f 485 519 486
f 487 520 518
f 487 488 520
f 488 520 519
f 488 519 486
f 489 521 522
f 489 522 490
f 491 524 523
f 491 492 524
f 523 491 489
f 523 489 521
f 492 524 522
f 492 522 490
f 493 525 526
f 493 526 495
f 494 528 527
f 494 496 528
f 527 494 493
f 527 493 525
f 496 528 526
f 496 526 495
f 497 529 530
f 497 530 499
f 498 532 531
f 498 500 532
f 531 498 497
f 531 497 529
f 500 532 530
f 500 530 499
f 501 533 534
f 501 534 503
f 502 536 535
f 502 504 536
f 535 502 501
f 535 501 533
f 504 536 534
f 504 534 503
f 505 537 538
f 505 538 507
f 506 540 539
f 506 508 540
f 539 506 505
f 539 505 537
f 508 540 538
f 508 538 507
f 509 541 542
f 509 542 511
f 510 544 543
f 510 512 544
f 543 510 509
f 543 509 541
f 512 544 542
f 512 542 511
f 513 545 546
f 513 546 515
f 514 548 547
f 514 516 548
f 547 514 513
f 547 513 545
f 516 548 546
f 516 546 515
f 517 549 550
f 517 550 519
f 518 552 551
f 518 520 552
f 551 518 517
f 551 517 549
f 520 552 550
f 520 550 519
f 521 553 554
f 521 554 522
f 523 556 555
f 523 524 556
f 555 523 521
f 555 521 553
f 522 554 557
f 522 557 525
f 524 558 556
f 524 527 558
f 524 527 525
f 524 525 522
f 558 556 554
f 558 554 557
f 525 557 559
f 525 559 526
f 527 560 558
f 527 528 560
f 526 559 561
f 526 561 529
f 528 562 560
f 528 531 562
f 528 531 529
f 528 529 526
f 562 560 559
f 562 559 561
f 529 561 563
f 529 563 530
f 531 564 562
f 531 532 564
f 530 563 565
f 530 565 533
f 532 566 564
f 532 535 566
f 532 535 533
f 532 533 530
f 566 564 563
f 566 563 565
f 533 565 567
f 533 567 534
f 535 568 566
f 535 536 568
f 534 567 569
f 534 569 537
f 536 570 568
f 536 539 570
f 536 539 537
f 536 537 534
f 570 568 567
f 570 567 569
f 537 569 571
f 537 571 538
f 539 572 570
f 539 540 572
f 538 571 573
f 538 573 541
f 540 574 572
f 540 543 574
f 540 543 541
f 540 541 538
f 574 572 571
f 574 571 573
f 541 573 575
f 541 575 542
f 543 576 574
f 543 544 576
f 542 575 577
f 542 577 545
f 544 578 576
f 544 547 578
f 544 547 545
f 544 545 542
f 578 576 575
f 578 575 577
f 545 577 579
f 545 579 546
f 547 580 578
f 547 548 580
f 546 579 581
f 546 581 549
f 548 582 580
f 548 551 582
f 548 551 549
f 548 549 546
f 582 580 579
f 582 579 581
f 549 581 583
f 549 583 550
f 551 584 582
f 551 552 584
f 552 584 583
f 552 583 550
f 553 585 586
f 553 586 554
f 555 588 587
f 555 556 588
f 587 555 553
f 587 553 585
f 556 588 586
f 556 586 554
f 557 589 590
f 557 590 559
f 558 592 591
f 558 560 592
f 591 558 557
f 591 557 589
f 560 592 590
f 560 590 559
f 561 593 594
f 561 594 563
f 562 596 595
f 562 564 596
f 595 562 561
f 595 561 593
f 564 596 594
f 564 594 563
f 565 597 598
f 565 598 567
f 566 600 599
f 566 568 600
f 599 566 565
f 599 565 597
f 568 600 598
f 568 598 567
f 569 601 602
f 569 602 571
f 570 604 603
f 570 572 604
f 603 570 569
f 603 569 601
f 572 604 602
f 572 602 571
f 573 605 606
f 573 606 575
f 574 608 607
f 574 576 608
f 607 574 573
f 607 573 605
f 576 608 606
f 576 606 575
f 577 609 610
f 577 610 579
f 578 612 611
f 578 580 612
f 611 578 577
f 611 577 609
f 580 612 610
f 580 610 579
f 581 613 614
f 581 614 583
f 582 616 615
f 582 584 616
f 615 582 581
f 615 581 613
f 584 616 614
f 584 614 583
f 585 617 618
f 585 618 586
f 587 620 619
f 587 588 620
f 619 587 585
f 619 585 617
f 586 618 621
f 586 621 589
f 588 622 620
f 588 591 622
f 588 591 589
f 588 589 586
f 622 620 618
f 622 618 621
f 589 621 623
f 589 623 590
f 591 624 622
f 591 592 624
f 590 623 625
f 590 625 593
f 592 626 624
f 592 595 626
f 592 595 593
f 592 593 590
f 626 624 623
f 626 623 625
f 593 625 627
f 593 627 594
f 595 628 626
f 595 596 628
f 594 627 629
f 594 629 597
f 596 630 628
f 596 599 630
f 596 599 597
f 596 597 594
f 630 628 627
f 630 627 629
f 597 629 631
f 597 631 598
f 599 632 630
f 599 600 632
f 598 631 633
f 598 633 601
f 600 634 632
f 600 603 634
f 600 603 601
f 600 601 598
f 634 632 631
f 634 631 633
f 601 633 635
f 601 635 602
f 603 636 634
f 603 604 636
f 602 635 637
f 602 637 605
f 604 638 636
f 604 607 638
f 604 607 605
f 604 605 602
f 638 636 635
f 638 635 637
f 605 637 639
f 605 639 606
f 607 640 638
f 607 608 640
f 606 639 641
f 606 641 609
f 608 642 640
f 608 611 642
f 608 611 609
f 608 609 606
f 642 640 639
f 642 639 641
f 609 641 643
f 609 643 610
f 611 644 642
f 611 612 644
f 610 643 645
f 610 645 613
f 612 646 644
f 612 615 646
f 612 615 613
f 612 613 610
f 646 644 643
f 646 643 645
f 613 645 647
f 613 647 614
f 615 648 646
f 615 616 648
f 616 648 647
f 616 647 614
f 617 649 650
f 617 650 618
f 619 652 651
f 619 620 652
f 651 619 617
f 651 617 649
f 620 652 650
f 620 650 618
f 621 653 654
f 621 654 623
f 622 656 655
f 622 624 656
f 655 622 621
f 655 621 653
f 624 656 654
f 624 654 623
f 625 657 658
f 625 658 627
f 626 660 659
f 626 628 660
f 659 626 625
f 659 625 657
f 628 660 658
f 628 658 627
f 629 661 662
f 629 662 631
f 630 664 663
f 630 632 664
f 663 630 629
f 663 629 661
f 632 664 662
f 632 662 631
f 633 665 666
f 633 666 635
f 634 668 667
f 634 636 668
f 667 634 633
f 667 633 665
f 636 668 666
f 636 666 635
f 637 669 670
f 637 670 639
f 638 672 671
f 638 640 672
f 671 638 637
f 671 637 669
f 640 672 670
f 640 670 639
f 641 673 674
f 641 674 643
f 642 676 675
f 642 644 676
f 675 642 641
f 675 641 673
f 644 676 674
f 644 674 643
f 645 677 678
f 645 678 647
f 646 680 679
f 646 648 680
f 679 646 645
f 679 645 677
f 648 680 678
f 648 678 647
f 649 681 682
f 649 682 650
f 651 684 683
f 651 652 684
f 683 651 649
f 683 649 681
f 650 682 685
f 650 685 653
f 652 686 684
f 652 655 686
f 652 655 653
f 652 653 650
f 686 684 682
f 686 682 685
f 653 685 687
f 653 687 654
f 655 688 686
f 655 656 688
f 654 687 689
f 654 689 657
f 656 690 688
f 656 659 690
f 656 659 657
f 656 657 654
f 690 688 687
f 690 687 689
f 657 689 691
f 657 691 658
f 659 692 690
f 659 660 692
f 658 691 693
f 658 693 661
f 660 694 692
f 660 663 694
f 660 663 661
f 660 661 658
f 694 692 691
f 694 691 693
f 661 693 695
f 661 695 662
f 663 696 694
f 663 664 696
f 662 695 697
f 662 697 665
f 664 698 696
f 664 667 698
f 664 667 665
f 664 665 662
f 698 696 695
f 698 695 697
f 665 697 699
f 665 699 666
f 667 700 698
f 667 668 700
f 666 699 701
f 666 701 669
f 668 702 700
f 668 671 702
f 668 671 669
f 668 669 666
f 702 700 699
f 702 699 701
f 669 701 703
f 669 703 670
f 671 704 702
f 671 672 704
f 670 703 705
f 670 705 673
f 672 706 704
f 672 675 706
f 672 675 673
f 672 673 670
f 706 704 703
f 706 703 705
f 673 705 707
f 673 707 674
f 675 708 706
f 675 676 708
f 674 707 709
f 674 709 677
f 676 710 708
f 676 679 710
f 676 679 677
f 676 677 674
f 710 708 707
f 710 707 709
f 677 709 711
f 677 711 678
f 679 712 710
f 679 680 712
f 680 712 711
f 680 711 678
f 681 713 714
f 681 714 682
f 683 716 715
f 683 684 716
f 715 683 681
f 715 681 713
f 684 716 714
f 684 714 682
f 685 717 718
f 685 718 687
f 686 720 719
f 686 688 720
f 719 686 685
f 719 685 717
f 688 720 718
f 688 718 687
f 689 721 722
f 689 722 691
f 690 724 723
f 690 692 724
f 723 690 689
f 723 689 721
f 692 724 722
f 692 722 691
f 693 725 726
f 693 726 695
f 694 728 727
f 694 696 728
f 727 694 693
f 727 693 725
f 696 728 726
f 696 726 695
f 697 729 730
f 697 730 699
f 698 732 731
f 698 700 732
f 731 698 697
f 731 697 729
f 700 732 730
f 700 730 699
f 701 733 734
f 701 734 703
f 702 736 735
f 702 704 736
f 735 702 701
f 735 701 733
f 704 736 734
f 704 734 703
f 705 737 738
f 705 738 707
f 706 740 739
f 706 708 740
f 739 706 705
f 739 705 737
f 708 740 738
f 708 738 707
f 709 741 742
f 709 742 711
f 710 744 743
f 710 712 744
f 743 710 709
f 743 709 741
f 712 744 742
f 712 742 711
f 713 745 746
f 713 746 714
f 715 748 747
f 715 716 748
f 747 715 713
f 747 713 745
f 714 746 749
f 714 749 717
f 716 750 748
f 716 719 750
f 716 719 717
f 716 717 714
f 750 748 746
f 750 746 749
f 717 749 751
f 717 751 718
f 719 752 750
f 719 720 752
f 718 751 753
f 718 753 721
f 720 754 752
f 720 723 754
f 720 723 721
f 720 721 718
f 754 752 751
f 754 751 753
f 721 753 755
f 721 755 722
f 723 756 754
f 723 724 756
f 722 755 757
f 722 757 725
f 724 758 756
f 724 727 758
f 724 727 725
f 724 725 722
f 758 756 755
f 758 755 757
f 725 757 759
f 725 759 726
f 727 760 758
f 727 728 760
f 726 759 761
f 726 761 729
f 728 762 760
f 728 731 762
f 728 731 729
f 728 729 726
f 762 760 759
f 762 759 761
f 729 761 763
f 729 763 730
f 731 764 762
f 731 732 764
f 730 763 765
f 730 765 733
f 732 766 764
f 732 735 766
f 732 735 733
f 732 733 730
f 766 764 763
f 766 763 765
f 733 765 767
f 733 767 734
f 735 768 766
f 735 736 768
f 734 767 769
f 734 769 737
f 736 770 768
f 736 739 770
f 736 739 737
f 736 737 734
f 770 768 767
f 770 767 769
f 737 769 771
f 737 771 738
f 739 772 770
f 739 740 772
f 738 771 773
f 738 773 741
f 740 774 772
f 740 743 774
f 740 743 741
f 740 741 738
f 774 772 771
f 774 771 773
f 741 773 775
f 741 775 742
f 743 776 774
f 743 744 776
f 744 776 775
f 744 775 742
f 745 777 778
f 745 778 746
f 747 780 779
f 747 748 780
f 779 747 745
f 779 745 777
f 748 780 778
f 748 778 746
f 749 781 782
f 749 782 751
f 750 784 783
f 750 752 784
f 783 750 749
f 783 749 781
f 752 784 782
f 752 782 751
f 753 785 786
f 753 786 755
f 754 788 787
f 754 756 788
f 787 754 753
f 787 753 785
f 756 788 786
f 756 786 755
f 757 789 790
f 757 790 759
f 758 792 791
f 758 760 792
f 791 758 757
f 791 757 789
f 760 792 790
f 760 790 759
f 761 793 794
f 761 794 763
f 762 796 795
f 762 764 796
f 795 762 761
f 795 761 793
f 764 796 794
f 764 794 763
f 765 797 798
f 765 798 767
f 766 800 799
f 766 768 800
f 799 766 765
f 799 765 797
f 768 800 798
f 768 798 767
f 769 801 802
f 769 802 771
f 770 804 803
f 770 772 804
f 803 770 769
f 803 769 801
f 772 804 802
f 772 802 771
f 773 805 806
f 773 806 775
f 774 808 807
f 774 776 808
f 807 774 773
f 807 773 805
f 776 808 806
f 776 806 775
f 777 809 810
f 777 810 778
f 779 812 811
f 779 780 812
f 812 811 809
f 812 809 810
f 811 779 777
f 811 777 809
f 778 810 813
f 778 813 781
f 780 814 812
f 780 783 814
f 780 783 781
f 780 781 778
f 814 812 810
f 814 810 813
f 781 813 815
f 781 815 782
f 783 816 814
f 783 784 816
f 816 814 813
f 816 813 815
f 782 815 817
f 782 817 785
f 784 818 816
f 784 787 818
f 784 787 785
f 784 785 782
f 818 816 815
f 818 815 817
f 785 817 819
f 785 819 786
f 787 820 818
f 787 788 820
f 820 818 817
f 820 817 819
f 786 819 821
f 786 821 789
f 788 822 820
f 788 791 822
f 788 791 789
f 788 789 786
f 822 820 819
f 822 819 821
f 789 821 823
f 789 823 790
f 791 824 822
f 791 792 824
f 824 822 821
f 824 821 823
f 790 823 825
f 790 825 793
f 792 826 824
f 792 795 826
f 792 795 793
f 792 793 790
f 826 824 823
f 826 823 825
f 793 825 827
f 793 827 794
f 795 828 826
f 795 796 828
f 828 826 825
f 828 825 827
f 794 827 829
f 794 829 797
f 796 830 828
f 796 799 830
f 796 799 797
f 796 797 794
f 830 828 827
f 830 827 829
f 797 829 831
f 797 831 798
f 799 832 830
f 799 800 832
f 832 830 829
f 832 829 831
f 798 831 833
f 798 833 801
f 800 834 832
f 800 803 834
f 800 803 801
f 800 801 798
f 834 832 831
f 834 831 833
f 801 833 835
f 801 835 802
f 803 836 834
f 803 804 836
f 836 834 833
f 836 833 835
f 802 835 837
f 802 837 805
f 804 838 836
f 804 807 838
f 804 807 805
f 804 805 802
f 838 836 835
f 838 835 837
f 805 837 839
f 805 839 806
f 807 840 838
f 807 808 840
f 840 838 837
f 840 837 839
f 808 840 839
f 808 839 806
f 841 842 843
f 841 843 844
f 845 847 846
f 845 848 847
f 845 848 844
f 845 844 841
f 847 846 842
f 847 842 843
f 846 845 841
f 846 841 842
f 848 847 843
f 848 843 844
f 849 850 851
f 849 851 852
f 853 855 854
f 853 856 855
f 853 856 852
f 853 852 849
f 855 854 850
f 855 850 851
f 854 853 849
f 854 849 850
f 856 855 851
f 856 851 852
f 865 866 867
f 865 867 868
f 869 871 870
f 869 872 871
f 869 872 868
f 869 868 865
f 871 870 866
f 871 866 867
f 870 869 865
f 870 865 866
f 872 871 867
f 872 867 868
f 873 874 875
f 873 875 876
f 877 879 878
f 877 880 879
f 877 880 876
f 877 876 873
f 879 878 874
f 879 874 875
f 878 877 873
f 878 873 874
f 880 879 875
f 880 875 876
f 889 890 891
f 889 891 892
f 893 895 894
f 893 896 895
f 893 896 892
f 893 892 889
f 895 894 890
f 895 890 891
f 894 893 889
f 894 889 890
f 896 895 891
f 896 891 892
f 897 898 899
f 897 899 900
f 901 903 902
f 901 904 903
f 901 904 900
f 901 900 897
f 903 902 898
f 903 898 899
f 902 901 897
f 902 897 898
f 904 903 899
f 904 899 900
f 913 914 915
f 913 915 916
f 917 919 918
f 917 920 919
f 917 920 916
f 917 916 913
f 919 918 914
f 919 914 915
f 918 917 913
f 918 913 914
f 920 919 915
f 920 915 916
f 921 922 923
f 921 923 924
f 925 927 926
f 925 928 927
f 925 928 924
f 925 924 921
f 927 926 922
f 927 922 923
f 926 925 921
f 926 921 922
f 928 927 923
f 928 923 924
f 937 938 939
f 937 939 940
f 941 943 942
f 941 944 943
f 941 944 940
f 941 940 937
f 943 942 938
f 943 938 939
f 942 941 937
f 942 937 938
f 944 943 939
f 944 939 940
f 945 946 947
f 945 947 948
f 949 951 950
f 949 952 951
f 949 952 948
f 949 948 945
f 951 950 946
f 951 946 947
f 950 949 945
f 950 945 946
f 952 951 947
f 952 947 948
f 961 962 963
f 961 963 964
f 965 967 966
f 965 968 967
f 965 968 964
f 965 964 961
f 967 966 962
f 967 962 963
f 966 965 961
f 966 961 962
f 968 967 963
f 968 963 964
f 969 970 971
f 969 971 972
f 973 975 974
f 973 976 975
f 973 976 972
f 973 972 969
f 975 974 970
f 975 970 971
f 974 973 969
f 974 969 970
f 976 975 971
f 976 971 972
f 985 986 987
f 985 987 988
f 989 991 990
f 989 992 991
f 989 992 988
f 989 988 985
f 991 990 986
f 991 986 987
f 990 989 985
f 990 985 986
f 992 991 987
f 992 987 988
f 993 994 995
f 993 995 996
f 997 999 998
f 997 1000 999
f 997 1000 996
f 997 996 993
f 999 998 994
f 999 994 995
f 998 997 993
f 998 993 994
f 1000 999 995
f 1000 995 996
f 1009 1010 1011
f 1009 1011 1012
f 1013 1015 1014
f 1013 1016 1015
f 1013 1016 1012
f 1013 1012 1009
f 1015 1014 1010
f 1015 1010 1011
f 1014 1013 1009
f 1014 1009 1010
f 1016 1015 1011
f 1016 1011 1012
f 1017 1018 1019
f 1017 1019 1020
f 1021 1023 1022
f 1021 1024 1023
f 1021 1024 1020
f 1021 1020 1017
f 1023 1022 1018
f 1023 1018 1019
f 1022 1021 1017
f 1022 1017 1018
f 1024 1023 1019
f 1024 1019 1020
f 1033 1034 1035
f 1033 1035 1036
f 1037 1039 1038
f 1037 1040 1039
f 1037 1040 1036
f 1037 1036 1033
f 1039 1038 1034
f 1039 1034 1035
f 1038 1037 1033
f 1038 1033 1034
f 1040 1039 1035
f 1040 1035 1036
f 1041 1042 1043
f 1041 1043 1044
f 1045 1047 1046
f 1045 1048 1047
f 1045 1048 1044
f 1045 1044 1041
f 1047 1046 1042
f 1047 1042 1043
f 1046 1045 1041
f 1046 1041 1042
f 1048 1047 1043
f 1048 1043 1044
f 1057 1058 1059
f 1057 1059 1060
f 1061 1063 1062
f 1061 1064 1063
f 1061 1064 1060
f 1061 1060 1057
f 1063 1062 1058
f 1063 1058 1059
f 1062 1061 1057
f 1062 1057 1058
f 1064 1063 1059
f 1064 1059 1060
f 1065 1066 1067
f 1065 1067 1068
f 1069 1071 1070
f 1069 1072 1071
f 1069 1072 1068
f 1069 1068 1065
f 1071 1070 1066
f 1071 1066 1067
f 1070 1069 1065
f 1070 1065 1066
f 1072 1071 1067
f 1072 1067 1068
f 1081 1082 1083
f 1081 1083 1084
f 1085 1087 1086
f 1085 1088 1087
f 1085 1088 1084
f 1085 1084 1081
f 1087 1086 1082
f 1087 1082 1083
f 1086 1085 1081
f 1086 1081 1082
f 1088 1087 1083
f 1088 1083 1084
f 1089 1090 1091
f 1089 1091 1092
f 1093 1095 1094
f 1093 1096 1095
f 1093 1096 1092
f 1093 1092 1089
f 1095 1094 1090
f 1095 1090 1091
f 1094 1093 1089
f 1094 1089 1090
f 1096 1095 1091
f 1096 1091 1092
f 1105 1106 1107
f 1105 1107 1108
f 1109 1111 1110
f 1109 1112 1111
f 1109 1112 1108
f 1109 1108 1105
f 1111 1110 1106
f 1111 1106 1107
f 1110 1109 1105
f 1110 1105 1106
f 1112 1111 1107
f 1112 1107 1108
f 1113 1114 1115
f 1113 1115 1116
f 1117 1119 1118
f 1117 1120 1119
f 1117 1120 1116
f 1117 1116 1113
f 1119 1118 1114
f 1119 1114 1115
f 1118 1117 1113
f 1118 1113 1114
f 1120 1119 1115
f 1120 1115 1116
f 1129 1130 1131
f 1129 1131 1132
f 1133 1135 1134
f 1133 1136 1135
f 1133 1136 1132
f 1133 1132 1129
f 1135 1134 1130
f 1135 1130 1131
f 1134 1133 1129
f 1134 1129 1130
f 1136 1135 1131
f 1136 1131 1132
f 1137 1138 1139
f 1137 1139 1140
f 1141 1143 1142
f 1141 1144 1143
f 1141 1144 1140
f 1141 1140 1137
f 1143 1142 1138
f 1143 1138 1139
f 1142 1141 1137
f 1142 1137 1138
f 1144 1143 1139
f 1144 1139 1140
f 1153 1154 1155
f 1153 1155 1156
f 1157 1159 1158
f 1157 1160 1159
f 1157 1160 1156
f 1157 1156 1153
f 1159 1158 1154
f 1159 1154 1155
f 1158 1157 1153
f 1158 1153 1154
f 1160 1159 1155
f 1160 1155 1156
f 1161 1162 1163
f 1161 1163 1164
f 1165 1167 1166
f 1165 1168 1167
f 1165 1168 1164
f 1165 1164 1161
f 1167 1166 1162
f 1167 1162 1163
f 1166 1165 1161
f 1166 1161 1162
f 1168 1167 1163
f 1168 1163 1164
f 1177 1178 1179
f 1177 1179 1180
f 1181 1183 1182
f 1181 1184 1183
f 1181 1184 1180
f 1181 1180 1177
f 1183 1182 1178
f 1183 1178 1179
f 1182 1181 1177
f 1182 1177 1178
f 1184 1183 1179
f 1184 1179 1180
f 1185 1186 1187
f 1185 1187 1188
f 1189 1191 1190
f 1189 1192 1191
f 1189 1192 1188
f 1189 1188 1185
f 1191 1190 1186
f 1191 1186 1187
f 1190 1189 1185
f 1190 1185 1186
f 1192 1191 1187
f 1192 1187 1188
f 1201 1202 1203
f 1201 1203 1204
f 1205 1207 1206
f 1205 1208 1207
f 1205 1208 1204
f 1205 1204 1201
f 1207 1206 1202
f 1207 1202 1203
f 1206 1205 1201
f 1206 1201 1202
f 1208 1207 1203
f 1208 1203 1204
f 1209 1210 1211
f 1209 1211 1212
f 1213 1215 1214
f 1213 1216 1215
f 1213 1216 1212
f 1213 1212 1209
f 1215 1214 1210
f 1215 1210 1211
f 1214 1213 1209
f 1214 1209 1210
f 1216 1215 1211
f 1216 1211 1212
f 1225 1226 1227
f 1225 1227 1228
f 1229 1231 1230
f 1229 1232 1231
f 1229 1232 1228
f 1229 1228 1225
f 1231 1230 1226
f 1231 1226 1227
f 1230 1229 1225
f 1230 1225 1226
f 1232 1231 1227
f 1232 1227 1228
f 1233 1234 1235
f 1233 1235 1236
f 1237 1239 1238
f 1237 1240 1239
f 1237 1240 1236
f 1237 1236 1233
f 1239 1238 1234
f 1239 1234 1235
f 1238 1237 1233
f 1238 1233 1234
f 1240 1239 1235
f 1240 1235 1236
f 1249 1250 1251
f 1249 1251 1252
f 1253 1255 1254
f 1253 1256 1255
f 1253 1256 1252
f 1253 1252 1249
f 1255 1254 1250
f 1255 1250 1251
f 1254 1253 1249
f 1254 1249 1250
f 1256 1255 1251
f 1256 1251 1252
f 1257 1258 1259
f 1257 1259 1260
f 1261 1263 1262
f 1261 1264 1263
f 1261 1264 1260
f 1261 1260 1257
f 1263 1262 1258
f 1263 1258 1259
f 1262 1261 1257
f 1262 1257 1258
f 1264 1263 1259
f 1264 1259 1260
f 1273 1274 1275
f 1273 1275 1276
f 1277 1279 1278
f 1277 1280 1279
f 1277 1280 1276
f 1277 1276 1273
f 1279 1278 1274
f 1279 1274 1275
f 1278 1277 1273
f 1278 1273 1274
f 1280 1279 1275
f 1280 1275 1276
f 1281 1282 1283
f 1281 1283 1284
f 1285 1287 1286
f 1285 1288 1287
f 1285 1288 1284
f 1285 1284 1281
f 1287 1286 1282
f 1287 1282 1283
f 1286 1285 1281
f 1286 1281 1282
f 1288 1287 1283
f 1288 1283 1284
f 1297 1298 1299
f 1297 1299 1300
f 1301 1303 1302
f 1301 1304 1303
f 1301 1304 1300
f 1301 1300 1297
f 1303 1302 1298
f 1303 1298 1299
f 1302 1301 1297
f 1302 1297 1298
f 1304 1303 1299
f 1304 1299 1300
f 1305 1306 1307
f 1305 1307 1308
f 1309 1311 1310
f 1309 1312 1311
f 1309 1312 1308
f 1309 1308 1305
f 1311 1310 1306
f 1311 1306 1307
f 1310 1309 1305
f 1310 1305 1306
f 1312 1311 1307
f 1312 1307 1308
f 1321 1322 1323
f 1321 1323 1324
f 1325 1327 1326
f 1325 1328 1327
f 1325 1328 1324
f 1325 1324 1321
f 1327 1326 1322
f 1327 1322 1323
f 1326 1325 1321
f 1326 1321 1322
f 1328 1327 1323
f 1328 1323 1324
f 1329 1330 1331
f 1329 1331 1332
f 1333 1335 1334
f 1333 1336 1335
f 1333 1336 1332
f 1333 1332 1329
f 1335 1334 1330
f 1335 1330 1331
f 1334 1333 1329
f 1334 1329 1330
f 1336 1335 1331
f 1336 1331 1332
f 1345 1346 1347
f 1345 1347 1348
f 1349 1351 1350
f 1349 1352 1351
f 1349 1352 1348
f 1349 1348 1345
f 1351 1350 1346
f 1351 1346 1347
f 1350 1349 1345
f 1350 1345 1346
f 1352 1351 1347
f 1352 1347 1348
f 1353 1354 1355
f 1353 1355 1356
f 1357 1359 1358
f 1357 1360 1359
f 1357 1360 1356
f 1357 1356 1353
f 1359 1358 1354
f 1359 1354 1355
f 1358 1357 1353
f 1358 1353 1354
f 1360 1359 1355
f 1360 1355 1356
f 1369 1370 1371
f 1369 1371 1372
f 1373 1375 1374
f 1373 1376 1375
f 1373 1376 1372
f 1373 1372 1369
f 1375 1374 1370
f 1375 1370 1371
f 1374 1373 1369
f 1374 1369 1370
f 1376 1375 1371
f 1376 1371 1372
f 1377 1378 1379
f 1377 1379 1380
f 1381 1383 1382
f 1381 1384 1383
f 1381 1384 1380
f 1381 1380 1377
f 1383 1382 1378
f 1383 1378 1379
f 1382 1381 1377
f 1382 1377 1378
f 1384 1383 1379
f 1384 1379 1380
f 1393 1394 1395
f 1393 1395 1396
f 1397 1399 1398
f 1397 1400 1399
f 1397 1400 1396
f 1397 1396 1393
f 1399 1398 1394
f 1399 1394 1395
f 1398 1397 1393
f 1398 1393 1394
f 1400 1399 1395
f 1400 1395 1396
f 1401 1402 1403
f 1401 1403 1404
f 1405 1407 1406
f 1405 1408 1407
f 1405 1408 1404
f 1405 1404 1401
f 1407 1406 1402
f 1407 1402 1403
f 1406 1405 1401
f 1406 1401 1402
f 1408 1407 1403
f 1408 1403 1404
f 1417 1418 1419
f 1417 1419 1420
f 1421 1423 1422
f 1421 1424 1423
f 1421 1424 1420
f 1421 1420 1417
f 1423 1422 1418
f 1423 1418 1419
f 1422 1421 1417
f 1422 1417 1418
f 1424 1423 1419
f 1424 1419 1420
f 1425 1426 1427
f 1425 1427 1428
f 1429 1431 1430
f 1429 1432 1431
f 1429 1432 1428
f 1429 1428 1425
f 1431 1430 1426
f 1431 1426 1427
f 1430 1429 1425
f 1430 1425 1426
f 1432 1431 1427
f 1432 1427 1428
f 1441 1442 1443
f 1441 1443 1444
f 1445 1447 1446
f 1445 1448 1447
f 1445 1448 1444
f 1445 1444 1441
f 1447 1446 1442
f 1447 1442 1443
f 1446 1445 1441
f 1446 1441 1442
f 1448 1447 1443
f 1448 1443 1444
f 1449 1450 1451
f 1449 1451 1452
f 1453 1455 1454
f 1453 1456 1455
f 1453 1456 1452
f 1453 1452 1449
f 1455 1454 1450
f 1455 1450 1451
f 1454 1453 1449
f 1454 1449 1450
f 1456 1455 1451
f 1456 1451 1452
f 1465 1466 1467
f 1465 1467 1468
f 1469 1471 1470
f 1469 1472 1471
f 1469 1472 1468
f 1469 1468 1465
f 1471 1470 1466
f 1471 1466 1467
f 1470 1469 1465
f 1470 1465 1466
f 1472 1471 1467
f 1472 1467 1468
f 1473 1474 1475
f 1473 1475 1476
f 1477 1479 1478
f 1477 1480 1479
f 1477 1480 1476
f 1477 1476 1473
f 1479 1478 1474
f 1479 1474 1475
f 1478 1477 1473
f 1478 1473 1474
f 1480 1479 1475
f 1480 1475 1476
f 1489 1490 1491
f 1489 1491 1492
f 1493 1495 1494
f 1493 1496 1495
f 1493 1496 1492
f 1493 1492 1489
f 1495 1494 1490
f 1495 1490 1491
f 1494 1493 1489
f 1494 1489 1490
f 1496 1495 1491
f 1496 1491 1492
f 1497 1498 1499
f 1497 1499 1500
f 1501 1503 1502
f 1501 1504 1503
f 1501 1504 1500
f 1501 1500 1497
f 1503 1502 1498
f 1503 1498 1499
f 1502 1501 1497
f 1502 1497 1498
f 1504 1503 1499
f 1504 1499 1500
f 1513 1514 1515
f 1513 1515 1516
f 1517 1519 1518
f 1517 1520 1519
f 1517 1520 1516
f 1517 1516 1513
f 1519 1518 1514
f 1519 1514 1515
f 1518 1517 1513
f 1518 1513 1514
f 1520 1519 1515
f 1520 1515 1516
f 1521 1522 1523
f 1521 1523 1524
f 1525 1527 1526
f 1525 1528 1527
f 1525 1528 1524
f 1525 1524 1521
f 1527 1526 1522
f 1527 1522 1523
f 1526 1525 1521
f 1526 1521 1522
f 1528 1527 1523
f 1528 1523 1524
f 1537 1538 1539
f 1537 1539 1540
f 1541 1543 1542
f 1541 1544 1543
f 1541 1544 1540
f 1541 1540 1537
f 1543 1542 1538
f 1543 1538 1539
f 1542 1541 1537
f 1542 1537 1538
f 1544 1543 1539
f 1544 1539 1540
f 1545 1546 1547
f 1545 1547 1548
f 1549 1551 1550
f 1549 1552 1551
f 1549 1552 1548
f 1549 1548 1545
f 1551 1550 1546
f 1551 1546 1547
f 1550 1549 1545
f 1550 1545 1546
f 1552 1551 1547
f 1552 1547 1548
f 1561 1562 1563
f 1561 1563 1564
f 1565 1567 1566
f 1565 1568 1567
f 1565 1568 1564
f 1565 1564 1561
f 1567 1566 1562
f 1567 1562 1563
f 1566 1565 1561
f 1566 1561 1562
f 1568 1567 1563
f 1568 1563 1564
f 1569 1570 1571
f 1569 1571 1572
f 1573 1575 1574
f 1573 1576 1575
f 1573 1576 1572
f 1573 1572 1569
f 1575 1574 1570
f 1575 1570 1571
f 1574 1573 1569
f 1574 1569 1570
f 1576 1575 1571
f 1576 1571 1572
f 1585 1586 1587
f 1585 1587 1588
f 1589 1591 1590
f 1589 1592 1591
f 1589 1592 1588
f 1589 1588 1585
f 1591 1590 1586
f 1591 1586 1587
f 1590 1589 1585
f 1590 1585 1586
f 1592 1591 1587
f 1592 1587 1588
f 1593 1594 1595
f 1593 1595 1596
f 1597 1599 1598
f 1597 1600 1599
f 1597 1600 1596
f 1597 1596 1593
f 1599 1598 1594
f 1599 1594 1595
f 1598 1597 1593
f 1598 1593 1594
f 1600 1599 1595
f 1600 1595 1596
f 1609 1610 1611
f 1609 1611 1612
f 1613 1615 1614
f 1613 1616 1615
f 1613 1616 1612
f 1613 1612 1609
f 1615 1614 1610
f 1615 1610 1611
f 1614 1613 1609
f 1614 1609 1610
f 1616 1615 1611
f 1616 1611 1612
f 1617 1618 1619
f 1617 1619 1620
f 1621 1623 1622
f 1621 1624 1623
f 1621 1624 1620
f 1621 1620 1617
f 1623 1622 1618
f 1623 1618 1619
f 1622 1621 1617
f 1622 1617 1618
f 1624 1623 1619
f 1624 1619 1620
g BOX
usemtl BOX
f 857 858 859
f 857 859 860
f 861 863 862
f 861 864 863
f 861 864 860
f 861 860 857
f 863 862 858
f 863 858 859
f 862 861 857
f 862 857 858
f 864 863 859
f 864 859 860
f 881 882 883
f 881 883 884
f 885 887 886
f 885 888 887
f 885 888 884
f 885 884 881
f 887 886 882
f 887 882 883
f 886 885 881
f 886 881 882
f 888 887 883
f 888 883 884
f 905 906 907
f 905 907 908
f 909 911 910
f 909 912 911
f 909 912 908
f 909 908 905
f 911 910 906
f 911 906 907
f 910 909 905
f 910 905 906
f 912 911 907
f 912 907 908
f 929 930 931
f 929 931 932
f 933 935 934
f 933 936 935
f 933 936 932
f 933 932 929
f 935 934 930
f 935 930 931
f 934 933 929
f 934 929 930
f 936 935 931
f 936 931 932
f 953 954 955
f 953 955 956
f 957 959 958
f 957 960 959
f 957 960 956
f 957 956 953
f 959 958 954
f 959 954 955
f 958 957 953
f 958 953 954
f 960 959 955
f 960 955 956
f 977 978 979
f 977 979 980
f 981 983 982
f 981 984 983
f 981 984 980
f 981 980 977
f 983 982 978
f 983 978 979
f 982 981 977
f 982 977 978
f 984 983 979
f 984 979 980
f 1001 1002 1003
f 1001 1003 1004
f 1005 1007 1006
f 1005 1008 1007
f 1005 1008 1004
f 1005 1004 1001
f 1007 1006 1002
f 1007 1002 1003
f 1006 1005 1001
f 1006 1001 1002
f 1008 1007 1003
f 1008 1003 1004
f 1025 1026 1027
f 1025 1027 1028
f 1029 1031 1030
f 1029 1032 1031
f 1029 1032 1028
f 1029 1028 1025
f 1031 1030 1026
f 1031 1026 1027
f 1030 1029 1025
f 1030 1025 1026
f 1032 1031 1027
f 1032 1027 1028
f 1049 1050 1051
f 1049 1051 1052
f 1053 1055 1054
f 1053 1056 1055
f 1053 1056 1052
f 1053 1052 1049
f 1055 1054 1050
f 1055 1050 1051
f 1054 1053 1049
f 1054 1049 1050
f 1056 1055 1051
f 1056 1051 1052
f 1073 1074 1075
f 1073 1075 1076
f 1077 1079 1078
f 1077 1080 1079
f 1077 1080 1076
f 1077 1076 1073
f 1079 1078 1074
f 1079 1074 1075
f 1078 1077 1073
f 1078 1073 1074
f 1080 1079 1075
f 1080 1075 1076
f 1097 1098 1099
f 1097 1099 1100
f 1101 1103 1102
f 1101 1104 1103
f 1101 1104 1100
f 1101 1100 1097
f 1103 1102 1098
f 1103 1098 1099
f 1102 1101 1097
f 1102 1097 1098
f 1104 1103 1099
f 1104 1099 1100
f 1121 1122 1123
f 1121 1123 1124
f 1125 1127 1126
f 1125 1128 1127
f 1125 1128 1124
f 1125 1124 1121
f 1127 1126 1122
f 1127 1122 1123
f 1126 1125 1121
f 1126 1121 1122
f 1128 1127 1123
f 1128 1123 1124
f 1145 1146 1147
f 1145 1147 1148
f 1149 1151 1150
f 1149 1152 1151
f 1149 1152 1148
f 1149 1148 1145
f 1151 1150 1146
f 1151 1146 1147
f 1150 1149 1145
f 1150 1145 1146
f 1152 1151 1147
f 1152 1147 1148
f 1169 1170 1171
f 1169 1171 1172
f 1173 1175 1174
f 1173 1176 1175
f 1173 1176 1172
f 1173 1172 1169
f 1175 1174 1170
f 1175 1170 1171
f 1174 1173 1169
f 1174 1169 1170
f 1176 1175 1171
f 1176 1171 1172
f 1193 1194 1195
f 1193 1195 1196
f 1197 1199 1198
f 1197 1200 1199
f 1197 1200 1196
f 1197 1196 1193
f 1199 1198 1194
f 1199 1194 1195
f 1198 1197 1193
f 1198 1193 1194
f 1200 1199 1195
f 1200 1195 1196
f 1217 1218 1219
f 1217 1219 1220
f 1221 1223 1222
f 1221 1224 1223
f 1221 1224 1220
f 1221 1220 1217
f 1223 1222 1218
f 1223 1218 1219
f 1222 1221 1217
f 1222 1217 1218
f 1224 1223 1219
f 1224 1219 1220
f 1241 1242 1243
f 1241 1243 1244
f 1245 1247 1246
f 1245 1248 1247
f 1245 1248 1244
f 1245 1244 1241
f 1247 1246 1242
f 1247 1242 1243
f 1246 1245 1241
f 1246 1241 1242
f 1248 1247 1243
f 1248 1243 1244
f 1265 1266 1267
f 1265 1267 1268
f 1269 1271 1270
f 1269 1272 1271
f 1269 1272 1268
f 1269 1268 1265
f 1271 1270 1266
f 1271 1266 1267
f 1270 1269 1265
f 1270 1265 1266
f 1272 1271 1267
f 1272 1267 1268
f 1289 1290 1291
f 1289 1291 1292
f 1293 1295 1294
f 1293 1296 1295
f 1293 1296 1292
f 1293 1292 1289
f 1295 1294 1290
f 1295 1290 1291
f 1294 1293 1289
f 1294 1289 1290
f 1296 1295 1291
f 1296 1291 1292
f 1313 1314 1315
f 1313 1315 1316
f 1317 1319 1318
f 1317 1320 1319
f 1317 1320 1316
f 1317 1316 1313
f 1319 1318 1314
f 1319 1314 1315
f 1318 1317 1313
f 1318 1313 1314
f 1320 1319 1315
f 1320 1315 1316
f 1337 1338 1339
f 1337 1339 1340
f 1341 1343 1342
f 1341 1344 1343
f 1341 1344 1340
f 1341 1340 1337
f 1343 1342 1338
f 1343 1338 1339
f 1342 1341 1337
f 1342 1337 1338
f 1344 1343 1339
f 1344 1339 1340
f 1361 1362 1363
f 1361 1363 1364
f 1365 1367 1366
f 1365 1368 1367
f 1365 1368 1364
f 1365 1364 1361
f 1367 1366 1362
f 1367 1362 1363
f 1366 1365 1361
f 1366 1361 1362
f 1368 1367 1363
f 1368 1363 1364
f 1385 1386 1387
f 1385 1387 1388
f 1389 1391 1390
f 1389 1392 1391
f 1389 1392 1388
f 1389 1388 1385
f 1391 1390 1386
f 1391 1386 1387
f 1390 1389 1385
f 1390 1385 1386
f 1392 1391 1387
f 1392 1387 1388
f 1409 1410 1411
f 1409 1411 1412
f 1413 1415 1414
f 1413 1416 1415
f 1413 1416 1412
f 1413 1412 1409
f 1415 1414 1410
f 1415 1410 1411
f 1414 1413 1409
f 1414 1409 1410
f 1416 1415 1411
f 1416 1411 1412
f 1433 1434 1435
f 1433 1435 1436
f 1437 1439 1438
f 1437 1440 1439
f 1437 1440 1436
f 1437 1436 1433
f 1439 1438 1434
f 1439 1434 1435
f 1438 1437 1433
f 1438 1433 1434
f 1440 1439 1435
f 1440 1435 1436
f 1457 1458 1459
f 1457 1459 1460
f 1461 1463 1462
f 1461 1464 1463
f 1461 1464 1460
f 1461 1460 1457
f 1463 1462 1458
f 1463 1458 1459
f 1462 1461 1457
f 1462 1457 1458
f 1464 1463 1459
f 1464 1459 1460
f 1481 1482 1483
f 1481 1483 1484
f 1485 1487 1486
f 1485 1488 1487
f 1485 1488 1484
f 1485 1484 1481
f 1487 1486 1482
f 1487 1482 1483
f 1486 1485 1481
f 1486 1481 1482
f 1488 1487 1483
f 1488 1483 1484
f 1505 1506 1507
f 1505 1507 1508
f 1509 1511 1510
f 1509 1512 1511
f 1509 1512 1508
f 1509 1508 1505
f 1511 1510 1506
f 1511 1506 1507
f 1510 1509 1505
f 1510 1505 1506
f 1512 1511 1507
f 1512 1507 1508
f 1529 1530 1531
f 1529 1531 1532
f 1533 1535 1534
f 1533 1536 1535
f 1533 1536 1532
f 1533 1532 1529
f 1535 1534 1530
f 1535 1530 1531
f 1534 1533 1529
f 1534 1529 1530
f 1536 1535 1531
f 1536 1531 1532
f 1553 1554 1555
f 1553 1555 1556
f 1557 1559 1558
f 1557 1560 1559
f 1557 1560 1556
f 1557 1556 1553
f 1559 1558 1554
f 1559 1554 1555
f 1558 1557 1553
f 1558 1553 1554
f 1560 1559 1555
f 1560 1555 1556
f 1577 1578 1579
f 1577 1579 1580
f 1581 1583 1582
f 1581 1584 1583
f 1581 1584 1580
f 1581 1580 1577
f 1583 1582 1578
f 1583 1578 1579
f 1582 1581 1577
f 1582 1577 1578
f 1584 1583 1579
f 1584 1579 1580
f 1601 1602 1603
f 1601 1603 1604
f 1605 1607 1606
f 1605 1608 1607
f 1605 1608 1604
f 1605 1604 1601
f 1607 1606 1602
f 1607 1602 1603
f 1606 1605 1601
f 1606 1601 1602
f 1608 1607 1603
f 1608 1603 1604
f 1625 1626 1627
f 1625 1627 1628
f 1629 1631 1630
f 1629 1632 1631
f 1629 1632 1628
f 1629 1628 1625
f 1631 1630 1626
f 1631 1626 1627
f 1630 1629 1625
f 1630 1625 1626
f 1632 1631 1627
f 1632 1627 1628
g METAL
usemtl METAL
f 1633 1634 1635
f 1633 1635 1636
f 1637 1639 1638
f 1637 1640 1639
f 1637 1640 1636
f 1637 1636 1633
f 1639 1638 1634
f 1639 1634 1635
f 1638 1637 1633
f 1638 1633 1634
f 1640 1639 1635
f 1640 1635 1636
